<svg xmlns="http://www.w3.org/2000/svg" xmlns:xlink="http://www.w3.org/1999/xlink" version="1.1" width="141.75pt" height="170.1pt" viewBox="0 0 141.75 170.1">
<defs>
<clipPath id="clip_0">
<path transform="matrix(1,0,0,-1,0,170.1)" d="M28 18H114V152H28Z"/>
</clipPath>
<clipPath id="clip_1">
<path transform="matrix(1,0,0,-1,0,170.1)" d="M0 0H141.75V170.1H0Z"/>
</clipPath>
<clipPath id="clip_2">
<path transform="matrix(1,0,0,-1,0,170.1)" d="M0 0H141.75V170.1H0Z"/>
</clipPath>
<clipPath id="clip_3">
<path transform="matrix(1,0,0,-1,0,170.1)" d="M39 31H107V102H39Z"/>
</clipPath>
<clipPath id="clip_4">
<path transform="matrix(1,0,0,-1,0,170.1)" d="M91.42501 91.54247C90.00287 90.20202 89.32622 90.45697 86.984 88.17034 85.8536 87.06677 83.82957 85.8743 81.7064 85.8743 80.63408 85.8743 79.63553 85.25035 78.59507 84.99548 77.57545 84.74572 77.24226 84.35911 76.22219 84.35911 73.98806 84.35911 71.15302 83.00178 68.40539 83.25157 65.65777 83.50135 61.73733 84.04094 58.60188 85.31093 55.72147 86.47762 54.79215 87.68524 53.79302 87.56035 52.79388 87.43545 51.85719 86.99833 50.98295 86.24898 50.1087 85.49963 49.54669 84.62538 49.2969 83.62625 49.04712 82.62711 49.60913 81.19085 50.98295 79.31747 52.35676 77.44409 53.29345 76.63229 53.79302 76.88207 54.29259 77.13186 54.97949 76.88207 55.85374 76.13272 56.72798 75.38337 57.35244 75.00869 57.72712 75.00869 58.10179 75.00869 58.66381 75.57071 59.41316 76.69473 60.16251 77.81876 60.91187 78.19344 61.66122 77.81876 62.41057 77.44409 62.78525 76.19517 62.78525 74.072 62.78525 71.94883 62.91014 70.57502 63.15992 69.95056 63.40971 69.3261 64.28395 68.5143 65.78266 67.51517 67.28136 66.51603 68.46784 65.57934 69.34208 64.70509 70.21633 63.83085 70.7159 63.14394 70.84079 62.64437 70.96568 62.14481 71.4028 61.77013 72.15215 61.52034 72.52683 61.39545 72.90151 61.27056 73.27618 61.14567 71.02813 61.02078 68.78007 60.89588 66.53201 60.77099 62.0359 60.52121 59.10093 60.08409 57.72712 59.45963 56.35331 58.83516 55.22928 58.02337 54.35503 57.02423 53.48079 56.02509 53.10611 55.02596 53.231 54.02682 53.35589 53.02768 55.16683 49.84293 58.66381 44.47257 60.4123 41.78739 62.16079 39.10221 63.90928 36.41703 63.03503 36.2297 62.16079 36.04236 61.28654 35.85502 59.53805 35.48034 58.22669 34.98077 57.35244 34.35631 56.4782 33.73185 53.91791 33.23229 49.67158 32.85761 45.42525 32.48293 42.74007 32.10826 41.61604 31.73358 41.05402 31.54624 40.49201 31.3589 39.92999 31.17157 50.98295 31.17157 62.0359 31.17157 73.08885 31.17157 84.1418 31.17157 95.19475 31.17157 106.2477 31.17157 106.0604 31.29646 105.873 31.42135 105.6857 31.54624 105.311 31.79603 103.1254 32.10826 99.12885 32.48293 95.1323 32.85761 92.8218 34.29387 92.19734 36.79171 91.57288 39.28955 89.26237 40.35113 85.26582 39.97646 83.26755 39.78912 81.26928 39.60178 79.271 39.41444 80.39503 42.09962 81.51906 44.7848 82.64309 47.46998 84.89115 52.84034 86.01518 56.14998 86.01518 57.39891 86.01518 58.64783 85.39072 60.14653 84.1418 61.89502 82.89287 63.64351 82.14352 66.14135 81.89374 69.38855 81.64395 72.63574 82.00531 73.24264 82.24875 74.0551 82.43209 74.66697 83.14266 77.44409 85.6405 78.56812 88.13834 79.69214 90.51129 82.56466 92.75935 87.18567 95.00741 91.80668 96.63101 94.30452 97.63014 94.6792 98.62928 95.05387 99.37863 95.55344 99.8782 96.1779 100.3778 96.80236 100.5651 97.73905 100.4402 98.98797 100.3153 100.2369 99.81575 101.1111 98.94151 101.6107 98.65918 101.772 97.48601 98.34491 95.3322 95.56755 94.15133 94.04481 92.45634 92.51456 91.42501 91.54247ZM63.15992 50.28006C63.90928 50.09272 64.65863 49.90538 65.40798 49.71804 66.90669 49.34337 69.0923 49.15603 71.96482 49.15603 74.83733 49.15603 76.71072 49.28092 77.58496 49.5307 78.02208 49.6556 78.45921 49.78049 78.89633 49.90538 77.64741 49.40581 76.39849 48.90624 75.14957 48.40667 72.65172 47.40754 71.27791 46.22106 71.02813 44.84725 70.77834 43.47344 70.7159 41.35027 70.84079 38.47775 70.90323 37.04149 70.96568 35.60524 71.02813 34.16898 70.84079 34.16898 70.65345 34.16898 70.46611 34.16898 70.27877 34.16898 70.09144 34.16898 69.9041 34.16898 69.96654 34.41876 70.02899 34.66854 70.09144 34.91833 70.21633 35.4179 69.0923 38.10308 66.71935 42.97387 65.53287 45.40926 64.3464 47.84466 63.15992 50.28006ZM87.88856 35.85502C88.8877 35.73013 89.38726 35.48034 89.38726 35.10567 89.38726 34.91833 89.38726 34.73099 89.38726 34.54365 89.19993 34.54365 89.01259 34.54365 88.82525 34.54365 88.45057 34.54365 88.13834 34.35631 87.88856 33.98164 87.63877 33.60696 86.26496 33.48207 83.76712 33.60696 81.26928 33.73185 80.02036 33.91919 80.02036 34.16898 80.02036 34.41876 81.08194 34.79344 83.20511 35.29301 85.32827 35.79257 86.88942 35.97991 87.88856 35.85502Z" fill-rule="evenodd"/>
</clipPath>
<clipPath id="clip_5">
<path transform="matrix(1,0,0,-1,0,170.1)" d="M0 0H142V171H0Z"/>
</clipPath>
<clipPath id="clip_6">
<path transform="matrix(1,0,0,-1,0,170.1)" d="M0 0H141.75V170.1H0Z"/>
</clipPath>
<clipPath id="clip_7">
<path transform="matrix(1,0,0,-1,0,170.1)" d="M53 89H85V127H53Z"/>
</clipPath>
<clipPath id="clip_8">
<path transform="matrix(1,0,0,-1,0,170.1)" d="M65.07299 117.552C65.07299 118.595 65.06295 119.548 65.04287 120.4111 65.0228 121.2742 64.97261 121.9036 64.89232 122.2992 64.29008 122.2992 63.54733 122.2812 62.66406 122.2452 61.78079 122.2093 60.83729 122.1643 59.83357 122.1104 58.82985 122.0564 57.80606 121.9845 56.76219 121.8946 55.71832 121.8047 54.75475 121.7058 53.87147 121.5979 53.95177 121.9935 54.02203 122.3891 54.08226 122.7847 54.14248 123.1803 54.17259 123.5759 54.17259 123.9715 54.17259 124.3671 54.14248 124.7627 54.08226 125.1583 54.02203 125.5538 53.95177 125.9494 53.87147 126.345 55.23653 126.3091 56.47111 126.2731 57.5752 126.2371 58.67929 126.2012 59.80346 126.1742 60.9477 126.1562 62.09194 126.1382 63.33655 126.1203 64.68154 126.1023 66.02652 126.0843 67.64251 126.0753 69.5295 126.0753 71.41649 126.0753 73.03248 126.0843 74.37747 126.1023 75.72245 126.1203 76.95703 126.1382 78.08119 126.1562 79.20536 126.1742 80.29941 126.2012 81.36336 126.2371 82.4273 126.2731 83.58158 126.3091 84.82619 126.345 84.74589 125.9494 84.67563 125.5538 84.61541 125.1583 84.55519 124.7627 84.52507 124.3671 84.52507 123.9715 84.52507 123.5759 84.55519 123.1803 84.61541 122.7847 84.67563 122.3891 84.74589 121.9935 84.82619 121.5979 84.02321 121.7058 83.11987 121.8047 82.11615 121.8946 81.11243 121.9845 80.11874 122.0564 79.1351 122.1104 78.15145 122.1643 77.21799 122.2093 76.33472 122.2452 75.45145 122.2812 74.70869 122.2992 74.10646 122.2992 74.06631 122.1194 74.0362 121.8676 74.01613 121.544 73.99605 121.2203 73.98602 120.8427 73.98602 120.4111V117.552 104.0658C73.98602 101.0809 74.02617 98.42862 74.10646 96.10899 74.18676 93.78937 74.30721 91.51469 74.4678 89.28498 73.78527 89.3569 73.04252 89.39287 72.23954 89.39287 71.43657 89.39287 70.53322 89.39287 69.5295 89.39287 68.52578 89.39287 67.62243 89.39287 66.81946 89.39287 66.01648 89.39287 65.27373 89.3569 64.5912 89.28498 64.7518 91.51469 64.87224 93.78937 64.95254 96.10899 65.03284 98.42862 65.07299 101.0809 65.07299 104.0658V117.552Z" fill-rule="evenodd"/>
</clipPath>
<clipPath id="clip_9">
<path transform="matrix(1,0,0,-1,0,170.1)" d="M0 0H142V171H0Z"/>
</clipPath>
<clipPath id="clip_10">
<path transform="matrix(1,0,0,-1,0,170.1)" d="M0 0H141.75V170.1H0Z"/>
</clipPath>
<clipPath id="clip_11">
<path transform="matrix(1,0,0,-1,0,170.1)" d="M46 127H93V140H46Z"/>
</clipPath>
<clipPath id="clip_12">
<path transform="matrix(1,0,0,-1,0,170.1)" d="M46.42936 139.6902C46.54826 139.1213 46.65779 138.5541 46.74695 137.9853 46.83609 137.4165 46.88811 136.8493 46.88811 136.2804 46.88812 135.7116 46.83612 135.1444 46.74695 134.5755 46.65781 134.0067 46.54825 133.4395 46.42936 132.8706 47.73708 133.0258 49.1537 133.1505 50.69919 133.2798 52.24472 133.4091 53.76527 133.5432 55.25133 133.6208 56.73738 133.6984 58.14286 133.7396 59.45059 133.7913 60.75831 133.843 61.84072 133.8595 62.73236 133.8595 62.85128 133.2906 62.94965 132.4069 62.97937 131.1657 63.00366 130.1503 63.01024 128.9786 63.01466 127.7901 63.41617 127.7846 63.76 127.7614 64.17916 127.756 65.66496 127.7367 67.45834 127.7219 69.54292 127.7219 71.62748 127.7219 73.42084 127.7367 74.90667 127.756 75.38067 127.7621 75.76315 127.7839 76.21232 127.7901V131.1657C76.21239 131.7863 76.21789 132.337 76.24761 132.8024 76.2773 133.2678 76.32932 133.6009 76.38876 133.8595 77.28037 133.8595 78.3628 133.843 79.67053 133.7913 80.97829 133.7396 82.37817 133.6984 83.8345 133.6208 85.29083 133.5432 86.75943 133.4091 88.24548 133.2798 89.73157 133.1505 91.07946 133.0258 92.2683 132.8706 92.14943 133.4395 92.03987 134.0067 91.95071 134.5755 91.8615 135.1444 91.80956 135.7116 91.80956 136.2804 91.80961 136.8493 91.86155 137.4164 91.95071 137.9853 92.03983 138.5541 92.14942 139.1213 92.2683 139.6902 90.42557 139.6385 88.69149 139.6055 87.11627 139.5538 85.54109 139.5021 83.94622 139.4433 82.28183 139.4174 80.61746 139.3915 78.76824 139.3751 76.77693 139.3492 74.7856 139.3233 72.40728 139.3151 69.61349 139.3151 66.81971 139.3151 64.44137 139.3233 62.45005 139.3492 60.45872 139.3751 58.60396 139.3915 56.90986 139.4174 55.21573 139.4433 53.53364 139.5021 51.89898 139.5538 50.26431 139.6055 48.4504 139.6385 46.42936 139.6902Z" fill-rule="evenodd"/>
</clipPath>
<clipPath id="clip_13">
<path transform="matrix(1,0,0,-1,0,170.1)" d="M0 0H142V171H0Z"/>
</clipPath>
<clipPath id="clip_14">
<path transform="matrix(1,0,0,-1,0,170.1)" d="M0 0H141.75V170.1H0Z"/>
</clipPath>
<clipPath id="clip_15">
<path transform="matrix(1,0,0,-1,0,170.1)" d="M62 86H77V118H62Z"/>
</clipPath>
<clipPath id="clip_16">
<path transform="matrix(1,0,0,-1,0,170.1)" d="M64.36978 117.8101C63.98746 117.8101 63.43438 117.7919 62.95011 117.7812V104.2344C62.95012 100.5984 62.89222 97.35476 62.77265 94.52921 62.65306 91.7037 62.47941 88.92651 62.24027 86.21047 63.25666 86.29806 64.34529 86.35489 65.54101 86.35489 66.73671 86.35489 68.09243 86.35489 69.58707 86.35489 71.08172 86.35489 72.43742 86.35489 73.63313 86.35489 74.82884 86.35491 75.91751 86.29808 76.93387 86.21047 76.69474 88.92651 76.52106 91.70366 76.40149 94.52921 76.28189 97.35474 76.22403 100.5984 76.22403 104.2344V117.7812C75.64963 117.7954 75.03099 117.8101 74.59141 117.8101 74.5468 117.6467 74.50724 117.4111 74.48494 117.1169 74.46263 116.8227 74.48496 116.4693 74.48494 116.0771V113.4775 101.2304C74.48494 98.51746 74.50215 96.11755 74.59141 94.00929 74.68063 91.90102 74.83889 89.82567 75.01731 87.79912 74.25896 87.86449 73.42503 87.88578 72.53289 87.88577 71.64071 87.88577 70.63134 87.88577 69.51609 87.88577 68.40087 87.88577 67.39147 87.88577 66.49929 87.88577 65.60711 87.88577 64.77321 87.86452 64.01486 87.79912 64.1933 89.82567 64.35155 91.90103 64.44076 94.00929 64.52998 96.11755 64.54719 98.51745 64.54724 101.2304V113.4775C64.54724 114.4254 64.5696 115.2926 64.54724 116.0771 64.52493 116.8615 64.45894 117.4506 64.36978 117.8101Z" fill-rule="evenodd"/>
</clipPath>
<clipPath id="clip_17">
<path transform="matrix(1,0,0,-1,0,170.1)" d="M0 0H142V171H0Z"/>
</clipPath>
<clipPath id="clip_18">
<path transform="matrix(1,0,0,-1,0,170.1)" d="M0 0H141.75V170.1H0Z"/>
</clipPath>
<clipPath id="clip_19">
<path transform="matrix(1,0,0,-1,0,170.1)" d="M35 82H104V152H35Z"/>
</clipPath>
<clipPath id="clip_20">
<path transform="matrix(1,0,0,-1,0,170.1)" d="M35.5023 116.969C35.5023 135.8689 50.74368 151.1903 69.54486 151.1903 88.34604 151.1903 103.5874 135.8689 103.5874 116.969 103.5874 98.06906 88.34604 82.74766 69.54486 82.74766 50.74368 82.74766 35.5023 98.06906 35.5023 116.969Z" fill-rule="evenodd"/>
</clipPath>
<clipPath id="clip_21">
<path transform="matrix(1,0,0,-1,0,170.1)" d="M0 0H142V171H0Z"/>
</clipPath>
<clipPath id="clip_22">
<path transform="matrix(1,0,0,-1,0,170.1)" d="M0 0H141.75V170.1H0Z"/>
</clipPath>
<clipPath id="clip_23">
<path transform="matrix(1,0,0,-1,0,170.1)" d="M28 19H33V28H28Z"/>
</clipPath>
<clipPath id="clip_24">
<path transform="matrix(1,0,0,-1,0,170.1)" d="M29.68783 25.19777C29.68783 25.42416 29.68658 25.63103 29.68408 25.81838 29.68158 26.00574 29.67532 26.14235 29.66531 26.22822 29.59024 26.22822 29.49765 26.22431 29.38755 26.21651 29.27745 26.2087 29.15984 26.19894 29.03472 26.18723 28.9096 26.17552 28.78198 26.15991 28.65186 26.1404 28.52174 26.12088 28.40163 26.09941 28.29152 26.07599 28.30153 26.16186 28.31029 26.24773 28.3178 26.3336 28.32531 26.41947 28.32906 26.50534 28.32906 26.59122 28.32906 26.67709 28.32531 26.76296 28.3178 26.84883 28.31029 26.9347 28.30153 27.02057 28.29152 27.10644 28.46168 27.09863 28.61558 27.09082 28.75321 27.08302 28.89084 27.07521 29.03097 27.06936 29.1736 27.06545 29.31623 27.06155 29.47138 27.05765 29.63904 27.05374 29.80669 27.04984 30.00813 27.04789 30.24335 27.04789 30.47857 27.04789 30.68001 27.04984 30.84767 27.05374 31.01533 27.05765 31.16922 27.06155 31.30935 27.06545 31.44948 27.06936 31.58586 27.07521 31.71848 27.08302 31.85111 27.09082 31.99499 27.09863 32.15014 27.10644 32.14013 27.02057 32.13137 26.9347 32.12386 26.84883 32.11636 26.76296 32.1126 26.67709 32.1126 26.59122 32.1126 26.50534 32.11636 26.41947 32.12386 26.3336 32.13137 26.24773 32.14013 26.16186 32.15014 26.07599 32.05004 26.09941 31.93744 26.12088 31.81232 26.1404 31.6872 26.15991 31.56334 26.17552 31.44072 26.18723 31.31811 26.19894 31.20175 26.2087 31.09165 26.21651 30.98154 26.22431 30.88896 26.22822 30.81389 26.22822 30.80888 26.18919 30.80513 26.13454 30.80263 26.06428 30.80012 25.99403 30.79887 25.91206 30.79887 25.81838V25.19777 22.27037C30.79887 21.62244 30.80388 21.04672 30.81389 20.54321 30.8239 20.0397 30.83891 19.54594 30.85893 19.06194 30.77385 19.07756 30.68126 19.08536 30.58117 19.08536 30.48107 19.08536 30.36847 19.08536 30.24335 19.08536 30.11823 19.08536 30.00563 19.08536 29.90554 19.08536 29.80544 19.08536 29.71286 19.07756 29.62778 19.06194 29.64779 19.54594 29.66281 20.0397 29.67282 20.54321 29.68283 21.04672 29.68783 21.62244 29.68783 22.27037V25.19777Z" fill-rule="evenodd"/>
</clipPath>
<clipPath id="clip_25">
<path transform="matrix(1,0,0,-1,0,170.1)" d="M0 0H142V171H0Z"/>
</clipPath>
<clipPath id="clip_26">
<path transform="matrix(1,0,0,-1,0,170.1)" d="M0 0H141.75V170.1H0Z"/>
</clipPath>
<clipPath id="clip_27">
<path transform="matrix(1,0,0,-1,0,170.1)" d="M36 19H40V28H36Z"/>
</clipPath>
<clipPath id="clip_28">
<path transform="matrix(1,0,0,-1,0,170.1)" d="M36.85176 23.86288C36.85176 24.51081 36.84676 25.08653 36.83675 25.59004 36.82674 26.09356 36.81172 26.59902 36.7917 27.10644 37.01691 27.09863 37.23962 27.08692 37.45983 27.07131 37.68004 27.0557 37.90274 27.04789 38.12796 27.04789 38.4983 27.04789 38.82736 27.05374 39.11513 27.06545 39.4029 27.07716 39.59683 27.09082 39.69692 27.10644 39.67691 26.98154 39.6669 26.8176 39.6669 26.61463 39.6669 26.48973 39.6694 26.39215 39.6744 26.32189 39.67941 26.25164 39.68692 26.17357 39.69692 26.0877 39.55179 26.10332 39.39289 26.11893 39.22023 26.13454 39.04757 26.15015 38.87991 26.16577 38.71726 26.18138 38.5546 26.19699 38.40822 26.2087 38.2781 26.21651 38.14797 26.22431 38.05539 26.22822 38.00034 26.22822 37.98032 25.79887 37.96906 25.37342 37.96655 24.95187 37.96405 24.53033 37.9628 24.10488 37.9628 23.67553 38.28811 23.68333 38.58213 23.69504 38.84488 23.71065 39.10762 23.72627 39.38163 23.74578 39.6669 23.7692 39.65188 23.63649 39.64187 23.53501 39.63687 23.46475 39.63186 23.3945 39.62936 23.32033 39.62936 23.24227 39.62936 23.17982 39.63311 23.11542 39.64062 23.04906 39.64813 22.98271 39.65689 22.88708 39.6669 22.76218 39.09636 22.83243 38.52833 22.86756 37.9628 22.86756 37.9628 22.61776 37.96155 22.36795 37.95905 22.11815 37.95654 21.86834 37.95529 21.61854 37.95529 21.36873 37.95529 20.86132 37.9628 20.37342 37.97781 19.90504 38.26308 19.90504 38.54835 19.91674 38.83362 19.94016 39.11888 19.96358 39.40665 20.00261 39.69692 20.05726 39.68692 19.97139 39.67941 19.89333 39.6744 19.82307 39.6694 19.75281 39.6669 19.65523 39.6669 19.53033 39.6669 19.40543 39.6694 19.30785 39.6744 19.23759 39.67941 19.16733 39.68692 19.10878 39.69692 19.06194 39.5618 19.06975 39.39539 19.07561 39.19771 19.07951 39.00002 19.08341 38.72852 19.08536 38.38319 19.08536 38.07791 19.08536 37.83018 19.08536 37.64 19.08536 37.45482 19.08536 37.30594 19.08536 37.19333 19.08536 37.08072 19.08536 36.99564 19.08341 36.93809 19.07951 36.88054 19.07561 36.83174 19.06975 36.7917 19.06194 36.81172 19.54594 36.82674 20.0397 36.83675 20.54321 36.84676 21.04672 36.85176 21.62244 36.85176 22.27037V23.86288Z" fill-rule="evenodd"/>
</clipPath>
<clipPath id="clip_29">
<path transform="matrix(1,0,0,-1,0,170.1)" d="M0 0H142V171H0Z"/>
</clipPath>
<clipPath id="clip_30">
<path transform="matrix(1,0,0,-1,0,170.1)" d="M0 0H141.75V170.1H0Z"/>
</clipPath>
<clipPath id="clip_31">
<path transform="matrix(1,0,0,-1,0,170.1)" d="M44 18H49V28H44Z"/>
</clipPath>
<clipPath id="clip_32">
<path transform="matrix(1,0,0,-1,0,170.1)" d="M48.67755 20.38513C48.63752 20.22119 48.60248 20.05531 48.57246 19.88747 48.54243 19.71963 48.52241 19.55375 48.5124 19.38981 48.10702 19.06975 47.59654 18.90972 46.98097 18.90972 46.54556 18.90972 46.15644 19.00535 45.81362 19.1966 45.4708 19.38786 45.18053 19.65718 44.94281 20.00457 44.70508 20.35195 44.52366 20.76374 44.39855 21.23993 44.27343 21.71612 44.21087 22.23134 44.21087 22.7856 44.21087 23.59746 44.2922 24.28638 44.45485 24.85234 44.6175 25.4183 44.83521 25.87888 45.10796 26.23407 45.38072 26.58926 45.69726 26.84883 46.0576 27.01276 46.41794 27.1767 46.79579 27.25866 47.19116 27.25866 47.32128 27.25866 47.45891 27.24305 47.60405 27.21182 47.74918 27.1806 47.88932 27.13961 48.02444 27.08887 48.15957 27.03813 48.28844 26.97763 48.41105 26.90737 48.53367 26.83712 48.63752 26.76296 48.7226 26.68489 48.67255 26.48973 48.63376 26.29262 48.60624 26.09356 48.57871 25.89449 48.55994 25.69348 48.54993 25.49051H48.44484C48.25466 25.86522 48.05948 26.13259 47.85929 26.29262 47.6591 26.45265 47.42388 26.53267 47.15363 26.53267 46.95344 26.53267 46.752 26.46241 46.54931 26.32189 46.34662 26.18138 46.1627 25.9667 45.99754 25.67787 45.83239 25.38903 45.69851 25.02018 45.59592 24.57131 45.49332 24.12244 45.44202 23.58575 45.44202 22.96124 45.44202 22.36015 45.49457 21.84688 45.59967 21.42143 45.70477 20.99598 45.84115 20.64859 46.0088 20.37927 46.17646 20.10995 46.36664 19.91284 46.57934 19.78794 46.79204 19.66304 47.00599 19.60059 47.22119 19.60059 47.3413 19.60059 47.46392 19.62205 47.58903 19.66499 47.71415 19.70792 47.83677 19.76647 47.95688 19.84063 48.07699 19.91479 48.19085 20.00652 48.29845 20.11581 48.40605 20.2251 48.49989 20.3461 48.57996 20.47881L48.67755 20.38513Z" fill-rule="evenodd"/>
</clipPath>
<clipPath id="clip_33">
<path transform="matrix(1,0,0,-1,0,170.1)" d="M0 0H142V171H0Z"/>
</clipPath>
<clipPath id="clip_34">
<path transform="matrix(1,0,0,-1,0,170.1)" d="M0 0H141.75V170.1H0Z"/>
</clipPath>
<clipPath id="clip_35">
<path transform="matrix(1,0,0,-1,0,170.1)" d="M53 19H59V28H53Z"/>
</clipPath>
<clipPath id="clip_36">
<path transform="matrix(1,0,0,-1,0,170.1)" d="M56.96003 22.93782C56.76985 22.94563 56.57967 22.95539 56.3895 22.96709 56.19932 22.9788 56.00914 22.98466 55.81896 22.98466 55.62878 22.98466 55.43861 22.98076 55.24843 22.97295 55.05825 22.96514 54.86807 22.95343 54.67789 22.93782V22.27037C54.67789 21.62244 54.6829 21.04672 54.69291 20.54321 54.70292 20.0397 54.71793 19.54594 54.73795 19.06194 54.65287 19.07756 54.56028 19.08536 54.46019 19.08536 54.3601 19.08536 54.24749 19.08536 54.12237 19.08536 53.99726 19.08536 53.88465 19.08536 53.78456 19.08536 53.68446 19.08536 53.59188 19.07756 53.5068 19.06194 53.52681 19.54594 53.54183 20.0397 53.55184 20.54321 53.56185 21.04672 53.56685 21.62244 53.56685 22.27037V23.86288C53.56685 24.51081 53.56185 25.08653 53.55184 25.59004 53.54183 26.09356 53.52681 26.59902 53.5068 27.10644 53.59188 27.09082 53.68446 27.07716 53.78456 27.06545 53.88465 27.05374 53.99726 27.04789 54.12237 27.04789 54.24749 27.04789 54.3601 27.05374 54.46019 27.06545 54.56028 27.07716 54.65287 27.09082 54.73795 27.10644 54.71293 26.59902 54.69666 26.09746 54.68915 25.60175 54.68165 25.10605 54.67789 24.53423 54.67789 23.8863 54.80801 23.87849 54.96441 23.87264 55.14708 23.86873 55.32975 23.86483 55.55622 23.86288 55.82647 23.86288 56.09672 23.86288 56.31693 23.86483 56.48709 23.86873 56.65725 23.87264 56.81489 23.87849 56.96003 23.8863 56.96003 24.53423 56.95503 25.10605 56.94502 25.60175 56.93501 26.09746 56.91999 26.59902 56.89997 27.10644 56.98505 27.09082 57.07764 27.07716 57.17773 27.06545 57.27783 27.05374 57.39043 27.04789 57.51555 27.04789 57.64067 27.04789 57.75327 27.05374 57.85337 27.06545 57.95346 27.07716 58.04605 27.09082 58.13113 27.10644 58.11111 26.59902 58.09609 26.09356 58.08609 25.59004 58.07608 25.08653 58.07107 24.51081 58.07107 23.86288V22.27037C58.07107 21.62244 58.07608 21.04672 58.08609 20.54321 58.09609 20.0397 58.11111 19.54594 58.13113 19.06194 58.04605 19.07756 57.95346 19.08536 57.85337 19.08536 57.75327 19.08536 57.64067 19.08536 57.51555 19.08536 57.39043 19.08536 57.27783 19.08536 57.17773 19.08536 57.07764 19.08536 56.98505 19.07756 56.89997 19.06194 56.91999 19.54594 56.93501 20.0397 56.94502 20.54321 56.95503 21.04672 56.96003 21.62244 56.96003 22.27037V22.93782Z" fill-rule="evenodd"/>
</clipPath>
<clipPath id="clip_37">
<path transform="matrix(1,0,0,-1,0,170.1)" d="M0 0H142V171H0Z"/>
</clipPath>
<clipPath id="clip_38">
<path transform="matrix(1,0,0,-1,0,170.1)" d="M0 0H141.75V170.1H0Z"/>
</clipPath>
<clipPath id="clip_39">
<path transform="matrix(1,0,0,-1,0,170.1)" d="M62 21H65V23H62Z"/>
</clipPath>
<clipPath id="clip_40">
<path transform="matrix(1,0,0,-1,0,170.1)" d="M64.86715 22.29379V21.00574H62.9979V22.29379H64.86715Z" fill-rule="evenodd"/>
</clipPath>
<clipPath id="clip_41">
<path transform="matrix(1,0,0,-1,0,170.1)" d="M0 0H142V171H0Z"/>
</clipPath>
<clipPath id="clip_42">
<path transform="matrix(1,0,0,-1,0,170.1)" d="M0 0H141.75V170.1H0Z"/>
</clipPath>
<clipPath id="clip_43">
<path transform="matrix(1,0,0,-1,0,170.1)" d="M69 19H74V28H69Z"/>
</clipPath>
<clipPath id="clip_44">
<path transform="matrix(1,0,0,-1,0,170.1)" d="M70.67982 25.19777C70.67982 25.42416 70.67857 25.63103 70.67606 25.81838 70.67356 26.00574 70.66731 26.14235 70.6573 26.22822 70.58223 26.22822 70.48964 26.22431 70.37954 26.21651 70.26943 26.2087 70.15182 26.19894 70.02671 26.18723 69.90159 26.17552 69.77397 26.15991 69.64385 26.1404 69.51372 26.12088 69.39361 26.09941 69.28351 26.07599 69.29352 26.16186 69.30228 26.24773 69.30978 26.3336 69.31729 26.41947 69.32104 26.50534 69.32104 26.59122 69.32104 26.67709 69.31729 26.76296 69.30978 26.84883 69.30228 26.9347 69.29352 27.02057 69.28351 27.10644 69.45367 27.09863 69.60756 27.09082 69.74519 27.08302 69.88282 27.07521 70.02295 27.06936 70.16559 27.06545 70.30822 27.06155 70.46336 27.05765 70.63102 27.05374 70.79868 27.04984 71.00012 27.04789 71.23534 27.04789 71.47056 27.04789 71.672 27.04984 71.83965 27.05374 72.00731 27.05765 72.1612 27.06155 72.30134 27.06545 72.44147 27.06936 72.57784 27.07521 72.71047 27.08302 72.84309 27.09082 72.98698 27.09863 73.14212 27.10644 73.13211 27.02057 73.12336 26.9347 73.11585 26.84883 73.10834 26.76296 73.10459 26.67709 73.10459 26.59122 73.10459 26.50534 73.10834 26.41947 73.11585 26.3336 73.12336 26.24773 73.13211 26.16186 73.14212 26.07599 73.04203 26.09941 72.92942 26.12088 72.80431 26.1404 72.67919 26.15991 72.55532 26.17552 72.43271 26.18723 72.31009 26.19894 72.19374 26.2087 72.08363 26.21651 71.97353 26.22431 71.88094 26.22822 71.80587 26.22822 71.80087 26.18919 71.79711 26.13454 71.79461 26.06428 71.79211 25.99403 71.79086 25.91206 71.79086 25.81838V25.19777 22.27037C71.79086 21.62244 71.79586 21.04672 71.80587 20.54321 71.81588 20.0397 71.8309 19.54594 71.85091 19.06194 71.76583 19.07756 71.67325 19.08536 71.57315 19.08536 71.47306 19.08536 71.36045 19.08536 71.23534 19.08536 71.11022 19.08536 70.99761 19.08536 70.89752 19.08536 70.79743 19.08536 70.70484 19.07756 70.61976 19.06194 70.63978 19.54594 70.65479 20.0397 70.6648 20.54321 70.67481 21.04672 70.67982 21.62244 70.67982 22.27037V25.19777Z" fill-rule="evenodd"/>
</clipPath>
<clipPath id="clip_45">
<path transform="matrix(1,0,0,-1,0,170.1)" d="M0 0H142V171H0Z"/>
</clipPath>
<clipPath id="clip_46">
<path transform="matrix(1,0,0,-1,0,170.1)" d="M0 0H141.75V170.1H0Z"/>
</clipPath>
<clipPath id="clip_47">
<path transform="matrix(1,0,0,-1,0,170.1)" d="M77 19H80V28H77Z"/>
</clipPath>
<clipPath id="clip_48">
<path transform="matrix(1,0,0,-1,0,170.1)" d="M77.94134 23.86288C77.94134 24.51081 77.93633 25.08653 77.92632 25.59004 77.91631 26.09356 77.9013 26.59902 77.88128 27.10644 77.96636 27.09082 78.05895 27.07716 78.15904 27.06545 78.25913 27.05374 78.37174 27.04789 78.49686 27.04789 78.62197 27.04789 78.73458 27.05374 78.83467 27.06545 78.93477 27.07716 79.02735 27.09082 79.11243 27.10644 79.09241 26.59902 79.0774 26.09356 79.06739 25.59004 79.05738 25.08653 79.05238 24.51081 79.05238 23.86288V22.27037C79.05238 21.62244 79.05738 21.04672 79.06739 20.54321 79.0774 20.0397 79.09241 19.54594 79.11243 19.06194 79.02735 19.07756 78.93477 19.08536 78.83467 19.08536 78.73458 19.08536 78.62197 19.08536 78.49686 19.08536 78.37174 19.08536 78.25913 19.08536 78.15904 19.08536 78.05895 19.08536 77.96636 19.07756 77.88128 19.06194 77.9013 19.54594 77.91631 20.0397 77.92632 20.54321 77.93633 21.04672 77.94134 21.62244 77.94134 22.27037V23.86288Z" fill-rule="evenodd"/>
</clipPath>
<clipPath id="clip_49">
<path transform="matrix(1,0,0,-1,0,170.1)" d="M0 0H142V171H0Z"/>
</clipPath>
<clipPath id="clip_50">
<path transform="matrix(1,0,0,-1,0,170.1)" d="M0 0H141.75V170.1H0Z"/>
</clipPath>
<clipPath id="clip_51">
<path transform="matrix(1,0,0,-1,0,170.1)" d="M83 19H88V28H83Z"/>
</clipPath>
<clipPath id="clip_52">
<path transform="matrix(1,0,0,-1,0,170.1)" d="M85.24039 25.19777C85.24039 25.42416 85.23914 25.63103 85.23664 25.81838 85.23414 26.00574 85.22788 26.14235 85.21787 26.22822 85.1428 26.22822 85.05021 26.22431 84.94011 26.21651 84.83001 26.2087 84.7124 26.19894 84.58728 26.18723 84.46216 26.17552 84.33454 26.15991 84.20442 26.1404 84.0743 26.12088 83.95419 26.09941 83.84408 26.07599 83.85409 26.16186 83.86285 26.24773 83.87036 26.3336 83.87787 26.41947 83.88162 26.50534 83.88162 26.59122 83.88162 26.67709 83.87787 26.76296 83.87036 26.84883 83.86285 26.9347 83.85409 27.02057 83.84408 27.10644 84.01424 27.09863 84.16814 27.09082 84.30577 27.08302 84.4434 27.07521 84.58353 27.06936 84.72616 27.06545 84.86879 27.06155 85.02394 27.05765 85.1916 27.05374 85.35925 27.04984 85.56069 27.04789 85.79591 27.04789 86.03113 27.04789 86.23257 27.04984 86.40023 27.05374 86.56788 27.05765 86.72178 27.06155 86.86191 27.06545 87.00204 27.06936 87.13842 27.07521 87.27104 27.08302 87.40367 27.09082 87.54755 27.09863 87.7027 27.10644 87.69269 27.02057 87.68393 26.9347 87.67642 26.84883 87.66892 26.76296 87.66516 26.67709 87.66516 26.59122 87.66516 26.50534 87.66892 26.41947 87.67642 26.3336 87.68393 26.24773 87.69269 26.16186 87.7027 26.07599 87.6026 26.09941 87.49 26.12088 87.36488 26.1404 87.23976 26.15991 87.1159 26.17552 86.99328 26.18723 86.87067 26.19894 86.75431 26.2087 86.64421 26.21651 86.5341 26.22431 86.44152 26.22822 86.36645 26.22822 86.36144 26.18919 86.35769 26.13454 86.35519 26.06428 86.35268 25.99403 86.35143 25.91206 86.35143 25.81838V25.19777 22.27037C86.35143 21.62244 86.35644 21.04672 86.36645 20.54321 86.37646 20.0397 86.39147 19.54594 86.41149 19.06194 86.32641 19.07756 86.23382 19.08536 86.13373 19.08536 86.03363 19.08536 85.92103 19.08536 85.79591 19.08536 85.67079 19.08536 85.55819 19.08536 85.4581 19.08536 85.358 19.08536 85.26541 19.07756 85.18034 19.06194 85.20035 19.54594 85.21537 20.0397 85.22538 20.54321 85.23539 21.04672 85.24039 21.62244 85.24039 22.27037V25.19777Z" fill-rule="evenodd"/>
</clipPath>
<clipPath id="clip_53">
<path transform="matrix(1,0,0,-1,0,170.1)" d="M0 0H142V171H0Z"/>
</clipPath>
<clipPath id="clip_54">
<path transform="matrix(1,0,0,-1,0,170.1)" d="M0 0H141.75V170.1H0Z"/>
</clipPath>
<clipPath id="clip_55">
<path transform="matrix(1,0,0,-1,0,170.1)" d="M91 19H97V28H91Z"/>
</clipPath>
<clipPath id="clip_56">
<path transform="matrix(1,0,0,-1,0,170.1)" d="M93.49284 24.90503C93.36272 24.43665 93.2401 23.97412 93.12499 23.51745 93.00989 23.06077 92.89728 22.59434 92.78718 22.11815H94.16097C94.05086 22.59434 93.94201 23.06077 93.83441 23.51745 93.72681 23.97412 93.61295 24.43665 93.49284 24.90503ZM96.15033 19.06194C96.03022 19.07756 95.91636 19.08536 95.80876 19.08536 95.70116 19.08536 95.59481 19.08536 95.48971 19.08536 95.38461 19.08536 95.27826 19.08536 95.17066 19.08536 95.06306 19.08536 94.95671 19.07756 94.85161 19.06194 94.77154 19.44446 94.68896 19.83478 94.60388 20.2329 94.5188 20.63103 94.42872 21.02916 94.33363 21.42728 94.17348 21.43509 94.01333 21.44094 93.85318 21.44485 93.69303 21.44875 93.53288 21.4507 93.37273 21.4507 93.2426 21.4507 93.11248 21.44875 92.98236 21.44485 92.85224 21.44094 92.72212 21.43509 92.592 21.42728 92.4919 21.02916 92.39932 20.63103 92.31424 20.2329 92.22916 19.83478 92.15158 19.44446 92.08152 19.06194 92.02146 19.07756 91.96266 19.08536 91.9051 19.08536 91.84755 19.08536 91.78874 19.08536 91.72869 19.08536 91.66863 19.08536 91.60857 19.08536 91.54852 19.08536 91.48846 19.08536 91.4234 19.07756 91.35334 19.06194 91.41339 19.26491 91.49347 19.54594 91.59356 19.90504 91.69365 20.26413 91.80376 20.67006 91.92387 21.12283 92.04398 21.5756 92.17285 22.06155 92.31048 22.58068 92.44811 23.0998 92.58574 23.62478 92.72337 24.15562 92.861 24.68645 92.99612 25.20948 93.12875 25.7247 93.26137 26.23993 93.38274 26.72002 93.49284 27.16499 93.54289 27.14937 93.59043 27.13571 93.63547 27.124 93.68052 27.11229 93.72806 27.10644 93.77811 27.10644 93.82815 27.10644 93.8757 27.11229 93.92074 27.124 93.96578 27.13571 94.01333 27.14937 94.06337 27.16499 94.22352 26.50144 94.39493 25.79106 94.57761 25.03384 94.76028 24.27662 94.9442 23.53306 95.12937 22.80316 95.31455 22.07326 95.49471 21.38044 95.66988 20.72471 95.84504 20.06897 96.00519 19.51472 96.15033 19.06194Z" fill-rule="evenodd"/>
</clipPath>
<clipPath id="clip_57">
<path transform="matrix(1,0,0,-1,0,170.1)" d="M0 0H142V171H0Z"/>
</clipPath>
<clipPath id="clip_58">
<path transform="matrix(1,0,0,-1,0,170.1)" d="M0 0H141.75V170.1H0Z"/>
</clipPath>
<clipPath id="clip_59">
<path transform="matrix(1,0,0,-1,0,170.1)" d="M100 19H106V28H100Z"/>
</clipPath>
<clipPath id="clip_60">
<path transform="matrix(1,0,0,-1,0,170.1)" d="M100.9345 24.77623C100.9345 25.31487 100.9295 25.76764 100.9195 26.13454 100.9095 26.50144 100.902 26.82541 100.897 27.10644 101.0371 27.06741 101.1497 27.04789 101.2348 27.04789 101.3199 27.04789 101.4325 27.06741 101.5726 27.10644 102.1181 26.16186 102.6574 25.2329 103.1904 24.31955 103.7234 23.4062 104.2702 22.47724 104.8307 21.53267V22.5514 23.68723C104.8307 24.06975 104.8294 24.44641 104.8269 24.81721 104.8244 25.18802 104.8219 25.52954 104.8194 25.8418 104.8169 26.15406 104.8119 26.42338 104.8044 26.64976 104.7969 26.87615 104.7881 27.02837 104.7781 27.10644 104.9183 27.06741 105.0309 27.04789 105.1159 27.04789 105.201 27.04789 105.3136 27.06741 105.4538 27.10644 105.4287 26.39606 105.4087 25.75398 105.3937 25.18021 105.3787 24.60644 105.3662 24.06585 105.3562 23.55843 105.3462 23.05101 105.3399 22.54945 105.3374 22.05375 105.3349 21.55804 105.3336 21.02916 105.3336 20.4671V19.06194C105.2336 19.07756 105.131 19.08536 105.0259 19.08536 104.9158 19.08536 104.8182 19.07756 104.7331 19.06194 103.7021 20.93548 102.6086 22.82072 101.4525 24.71768 101.4475 24.49129 101.4438 24.26491 101.4413 24.03852 101.4387 23.81214 101.4375 23.58185 101.4375 23.34766V21.98934C101.4375 21.52096 101.4387 21.12283 101.4413 20.79496 101.4438 20.4671 101.4475 20.18997 101.4525 19.96358 101.4575 19.7372 101.4625 19.5518 101.4675 19.40738 101.4725 19.26296 101.4775 19.14781 101.4825 19.06194 101.4225 19.07756 101.3624 19.08536 101.3024 19.08536 101.2423 19.08536 101.1848 19.08536 101.1297 19.08536 101.0146 19.08536 100.8995 19.07756 100.7844 19.06194 100.7944 19.1244 100.8069 19.34688 100.8219 19.72939 100.8369 20.1119 100.8532 20.57834 100.8707 21.12869 100.8882 21.67904 100.9032 22.27623 100.9158 22.92026 100.9283 23.56428 100.9345 24.18294 100.9345 24.77623Z" fill-rule="evenodd"/>
</clipPath>
<clipPath id="clip_61">
<path transform="matrix(1,0,0,-1,0,170.1)" d="M0 0H142V171H0Z"/>
</clipPath>
<clipPath id="clip_62">
<path transform="matrix(1,0,0,-1,0,170.1)" d="M0 0H141.75V170.1H0Z"/>
</clipPath>
<clipPath id="clip_63">
<path transform="matrix(1,0,0,-1,0,170.1)" d="M110 18H114V28H110Z"/>
</clipPath>
<clipPath id="clip_64">
<path transform="matrix(1,0,0,-1,0,170.1)" d="M112.8654 25.52564C112.7053 26.19699 112.4025 26.53267 111.9571 26.53267 111.7269 26.53267 111.5392 26.42728 111.394 26.21651 111.2489 26.00574 111.1763 25.75983 111.1763 25.4788 111.1763 25.18997 111.2326 24.95382 111.3452 24.77037 111.4579 24.58692 111.5992 24.42104 111.7694 24.27271 111.9396 24.12439 112.1222 23.98193 112.3174 23.84531 112.5126 23.7087 112.6953 23.54087 112.8654 23.3418 113.0356 23.14274 113.177 22.90074 113.2896 22.61581 113.4022 22.33087 113.4585 21.96592 113.4585 21.52096 113.4585 21.13064 113.4109 20.7735 113.3158 20.44953 113.2208 20.12557 113.0856 19.84844 112.9105 19.61815 112.7353 19.38786 112.5264 19.21222 112.2836 19.09122 112.0409 18.97022 111.7694 18.90972 111.4691 18.90972 111.1989 18.90972 110.9574 18.95461 110.7447 19.04438 110.532 19.13415 110.3706 19.24539 110.2605 19.3781 110.3105 19.65133 110.3531 19.90113 110.3881 20.12752 110.4231 20.3539 110.4532 20.5998 110.4782 20.86522H110.6208C110.6408 20.69348 110.6784 20.5315 110.7334 20.37927 110.7885 20.22705 110.8585 20.09239 110.9436 19.97529 111.0287 19.8582 111.1313 19.76647 111.2514 19.70012 111.3715 19.63376 111.5066 19.60059 111.6568 19.60059 111.9571 19.60059 112.1785 19.71768 112.3212 19.95187 112.4638 20.18607 112.5351 20.4671 112.5351 20.79496 112.5351 21.09161 112.4801 21.33361 112.37 21.52096 112.2599 21.70831 112.1222 21.8742 111.9571 22.01862 111.7919 22.16304 111.6117 22.30355 111.4166 22.44016 111.2214 22.57677 111.0412 22.74266 110.8761 22.93782 110.7109 23.13298 110.5733 23.37303 110.4632 23.65796 110.3531 23.94289 110.298 24.30784 110.298 24.75281 110.298 25.15874 110.3443 25.51784 110.4369 25.83009 110.5295 26.14235 110.6533 26.40386 110.8085 26.61463 110.9636 26.82541 111.1426 26.98544 111.3452 27.09473 111.5479 27.20402 111.7619 27.25866 111.9871 27.25866 112.2574 27.25866 112.4938 27.20792 112.6965 27.10644 112.8992 27.00495 113.0731 26.86444 113.2183 26.68489 113.1732 26.50534 113.1344 26.33165 113.1019 26.16381 113.0694 25.99598 113.0281 25.78325 112.978 25.52564H112.8654Z" fill-rule="evenodd"/>
</clipPath>
<clipPath id="clip_65">
<path transform="matrix(1,0,0,-1,0,170.1)" d="M0 0H142V171H0Z"/>
</clipPath>
</defs>
<g>
<g>
<g clip-path="url(#clip_0)">
<g clip-path="url(#clip_1)">
<path transform="matrix(1,0,0,-1,0,170.1)" d="M91.42501 91.54247C90.00287 90.20202 89.32622 90.45697 86.984 88.17034 85.8536 87.06677 83.82957 85.8743 81.7064 85.8743 80.63408 85.8743 79.63553 85.25035 78.59507 84.99548 77.57545 84.74572 77.24226 84.35911 76.22219 84.35911 73.98806 84.35911 71.15302 83.00178 68.40539 83.25157 65.65777 83.50135 61.73733 84.04094 58.60188 85.31093 55.72147 86.47762 54.79215 87.68524 53.79302 87.56035 52.79388 87.43545 51.85719 86.99833 50.98295 86.24898 50.1087 85.49963 49.54669 84.62538 49.2969 83.62625 49.04712 82.62711 49.60913 81.19085 50.98295 79.31747 52.35676 77.44409 53.29345 76.63229 53.79302 76.88207 54.29259 77.13186 54.97949 76.88207 55.85374 76.13272 56.72798 75.38337 57.35244 75.00869 57.72712 75.00869 58.10179 75.00869 58.66381 75.57071 59.41316 76.69473 60.16251 77.81876 60.91187 78.19344 61.66122 77.81876 62.41057 77.44409 62.78525 76.19517 62.78525 74.072 62.78525 71.94883 62.91014 70.57502 63.15992 69.95056 63.40971 69.3261 64.28395 68.5143 65.78266 67.51517 67.28136 66.51603 68.46784 65.57934 69.34208 64.70509 70.21633 63.83085 70.7159 63.14394 70.84079 62.64437 70.96568 62.14481 71.4028 61.77013 72.15215 61.52034 72.52683 61.39545 72.90151 61.27056 73.27618 61.14567 71.02813 61.02078 68.78007 60.89588 66.53201 60.77099 62.0359 60.52121 59.10093 60.08409 57.72712 59.45963 56.35331 58.83516 55.22928 58.02337 54.35503 57.02423 53.48079 56.02509 53.10611 55.02596 53.231 54.02682 53.35589 53.02768 55.16683 49.84293 58.66381 44.47257 60.4123 41.78739 62.16079 39.10221 63.90928 36.41703 63.03503 36.2297 62.16079 36.04236 61.28654 35.85502 59.53805 35.48034 58.22669 34.98077 57.35244 34.35631 56.4782 33.73185 53.91791 33.23229 49.67158 32.85761 45.42525 32.48293 42.74007 32.10826 41.61604 31.73358 41.05402 31.54624 40.49201 31.3589 39.92999 31.17157 50.98295 31.17157 62.0359 31.17157 73.08885 31.17157 84.1418 31.17157 95.19475 31.17157 106.2477 31.17157 106.0604 31.29646 105.873 31.42135 105.6857 31.54624 105.311 31.79603 103.1254 32.10826 99.12885 32.48293 95.1323 32.85761 92.8218 34.29387 92.19734 36.79171 91.57288 39.28955 89.26237 40.35113 85.26582 39.97646 83.26755 39.78912 81.26928 39.60178 79.271 39.41444 80.39503 42.09962 81.51906 44.7848 82.64309 47.46998 84.89115 52.84034 86.01518 56.14998 86.01518 57.39891 86.01518 58.64783 85.39072 60.14653 84.1418 61.89502 82.89287 63.64351 82.14352 66.14135 81.89374 69.38855 81.64395 72.63574 82.00531 73.24264 82.24875 74.0551 82.43209 74.66697 83.14266 77.44409 85.6405 78.56812 88.13834 79.69214 90.51129 82.56466 92.75935 87.18567 95.00741 91.80668 96.63101 94.30452 97.63014 94.6792 98.62928 95.05387 99.37863 95.55344 99.8782 96.1779 100.3778 96.80236 100.5651 97.73905 100.4402 98.98797 100.3153 100.2369 99.81575 101.1111 98.94151 101.6107 98.65918 101.772 97.48601 98.34491 95.3322 95.56755 94.15133 94.04481 92.45634 92.51456 91.42501 91.54247ZM63.15992 50.28006C63.90928 50.09272 64.65863 49.90538 65.40798 49.71804 66.90669 49.34337 69.0923 49.15603 71.96482 49.15603 74.83733 49.15603 76.71072 49.28092 77.58496 49.5307 78.02208 49.6556 78.45921 49.78049 78.89633 49.90538 77.64741 49.40581 76.39849 48.90624 75.14957 48.40667 72.65172 47.40754 71.27791 46.22106 71.02813 44.84725 70.77834 43.47344 70.7159 41.35027 70.84079 38.47775 70.90323 37.04149 70.96568 35.60524 71.02813 34.16898 70.84079 34.16898 70.65345 34.16898 70.46611 34.16898 70.27877 34.16898 70.09144 34.16898 69.9041 34.16898 69.96654 34.41876 70.02899 34.66854 70.09144 34.91833 70.21633 35.4179 69.0923 38.10308 66.71935 42.97387 65.53287 45.40926 64.3464 47.84466 63.15992 50.28006ZM87.88856 35.85502C88.8877 35.73013 89.38726 35.48034 89.38726 35.10567 89.38726 34.91833 89.38726 34.73099 89.38726 34.54365 89.19993 34.54365 89.01259 34.54365 88.82525 34.54365 88.45057 34.54365 88.13834 34.35631 87.88856 33.98164 87.63877 33.60696 86.26496 33.48207 83.76712 33.60696 81.26928 33.73185 80.02036 33.91919 80.02036 34.16898 80.02036 34.41876 81.08194 34.79344 83.20511 35.29301 85.32827 35.79257 86.88942 35.97991 87.88856 35.85502Z" fill="#f2f3f4"/>
</g>
<g clip-path="url(#clip_2)">
<g>
<g clip-path="url(#clip_3)">
<g clip-path="url(#clip_4)">
<g clip-path="url(#clip_5)">
<path stroke-width="1.832751" stroke-linecap="butt" stroke-miterlimit="10" stroke-linejoin="miter" fill="none" stroke="#f2f3f4" d="M91.42501 78.55753C90.00287 79.89798 89.32622 79.64303 86.984 81.92966 85.8536 83.03323 83.82957 84.2257 81.7064 84.2257 80.63408 84.2257 79.63553 84.84965 78.59507 85.10452 77.57545 85.35428 77.24226 85.74089 76.22219 85.74089 73.98806 85.74089 71.15302 87.09822 68.40539 86.84843 65.65777 86.59865 61.73733 86.05906 58.60188 84.78907 55.72147 83.62238 54.79215 82.41476 53.79302 82.53965 52.79388 82.66455 51.85719 83.10167 50.98295 83.85102 50.1087 84.60037 49.54669 85.47462 49.2969 86.47375 49.04712 87.47289 49.60913 88.90915 50.98295 90.78253 52.35676 92.65591 53.29345 93.46771 53.79302 93.21793 54.29259 92.96814 54.97949 93.21793 55.85374 93.96728 56.72798 94.71663 57.35244 95.09131 57.72712 95.09131 58.10179 95.09131 58.66381 94.52929 59.41316 93.40527 60.16251 92.28124 60.91187 91.90656 61.66122 92.28124 62.41057 92.65591 62.78525 93.90483 62.78525 96.028 62.78525 98.15117 62.91014 99.52498 63.15992 100.1494 63.40971 100.7739 64.28395 101.5857 65.78266 102.5848 67.28136 103.584 68.46784 104.5207 69.34208 105.3949 70.21633 106.2692 70.7159 106.9561 70.84079 107.4556 70.96568 107.9552 71.4028 108.3299 72.15215 108.5797 72.52683 108.7045 72.90151 108.8294 73.27618 108.9543 71.02813 109.0792 68.78007 109.2041 66.53201 109.329 62.0359 109.5788 59.10093 110.0159 57.72712 110.6404 56.35331 111.2648 55.22928 112.0766 54.35503 113.0758 53.48079 114.0749 53.10611 115.074 53.231 116.0732 53.35589 117.0723 55.16683 120.2571 58.66381 125.6274 60.4123 128.3126 62.16079 130.9978 63.90928 133.683 63.03503 133.8703 62.16079 134.0576 61.28654 134.245 59.53805 134.6197 58.22669 135.1192 57.35244 135.7437 56.4782 136.3681 53.91791 136.8677 49.67158 137.2424 45.42525 137.6171 42.74007 137.9917 41.61604 138.3664 41.05402 138.5538 40.49201 138.7411 39.92999 138.9284 50.98295 138.9284 62.0359 138.9284 73.08885 138.9284 84.1418 138.9284 95.19475 138.9284 106.2477 138.9284 106.0604 138.8035 105.873 138.6786 105.6857 138.5538 105.311 138.304 103.1254 137.9917 99.12885 137.6171 95.1323 137.2424 92.8218 135.8061 92.19734 133.3083 91.57288 130.8104 89.26237 129.7489 85.26582 130.1235 83.26755 130.3109 81.26928 130.4982 79.271 130.6856 80.39503 128.0004 81.51906 125.3152 82.64309 122.63 84.89115 117.2597 86.01518 113.95 86.01518 112.7011 86.01518 111.4522 85.39072 109.9535 84.1418 108.205 82.89287 106.4565 82.14352 103.9586 81.89374 100.7115 81.64395 97.46426 82.00531 96.85736 82.24875 96.0449 82.43209 95.43303 83.14266 92.65591 85.6405 91.53188 88.13834 90.40786 90.51129 87.53534 92.75935 82.91433 95.00741 78.29332 96.63101 75.79548 97.63014 75.4208 98.62928 75.04613 99.37863 74.54656 99.8782 73.9221 100.3778 73.29764 100.5651 72.36095 100.4402 71.11203 100.3153 69.86311 99.81575 68.98886 98.94151 68.48929 98.65918 68.32796 97.48601 71.75509 95.3322 74.53245 94.15133 76.05519 92.45634 77.58544 91.42501 78.55753ZM63.15992 119.8199C63.90928 120.0073 64.65863 120.1946 65.40798 120.382 66.90669 120.7566 69.0923 120.944 71.96482 120.944 74.83733 120.944 76.71072 120.8191 77.58496 120.5693 78.02208 120.4444 78.45921 120.3195 78.89633 120.1946 77.64741 120.6942 76.39849 121.1938 75.14957 121.6933 72.65172 122.6925 71.27791 123.8789 71.02813 125.2527 70.77834 126.6266 70.7159 128.7497 70.84079 131.6222 70.90323 133.0585 70.96568 134.4948 71.02813 135.931 70.84079 135.931 70.65345 135.931 70.46611 135.931 70.27877 135.931 70.09144 135.931 69.9041 135.931 69.96654 135.6812 70.02899 135.4315 70.09144 135.1817 70.21633 134.6821 69.0923 131.9969 66.71935 127.1261 65.53287 124.6907 64.3464 122.2553 63.15992 119.8199ZM87.88856 134.245C88.8877 134.3699 89.38726 134.6197 89.38726 134.9943 89.38726 135.1817 89.38726 135.369 89.38726 135.5563 89.19993 135.5563 89.01259 135.5563 88.82525 135.5563 88.45057 135.5563 88.13834 135.7437 87.88856 136.1184 87.63877 136.493 86.26496 136.6179 83.76712 136.493 81.26928 136.3681 80.02036 136.1808 80.02036 135.931 80.02036 135.6812 81.08194 135.3066 83.20511 134.807 85.32827 134.3074 86.88942 134.1201 87.88856 134.245Z"/>
</g>
</g>
</g>
</g>
<path transform="matrix(1,0,0,-1,0,170.1)" d="M65.07299 117.552C65.07299 118.595 65.06295 119.548 65.04287 120.4111 65.0228 121.2742 64.97261 121.9036 64.89232 122.2992 64.29008 122.2992 63.54733 122.2812 62.66406 122.2452 61.78079 122.2093 60.83729 122.1643 59.83357 122.1104 58.82985 122.0564 57.80606 121.9845 56.76219 121.8946 55.71832 121.8047 54.75475 121.7058 53.87147 121.5979 53.95177 121.9935 54.02203 122.3891 54.08226 122.7847 54.14248 123.1803 54.17259 123.5759 54.17259 123.9715 54.17259 124.3671 54.14248 124.7627 54.08226 125.1583 54.02203 125.5538 53.95177 125.9494 53.87147 126.345 55.23653 126.3091 56.47111 126.2731 57.5752 126.2371 58.67929 126.2012 59.80346 126.1742 60.9477 126.1562 62.09194 126.1382 63.33655 126.1203 64.68154 126.1023 66.02652 126.0843 67.64251 126.0753 69.5295 126.0753 71.41649 126.0753 73.03248 126.0843 74.37747 126.1023 75.72245 126.1203 76.95703 126.1382 78.08119 126.1562 79.20536 126.1742 80.29941 126.2012 81.36336 126.2371 82.4273 126.2731 83.58158 126.3091 84.82619 126.345 84.74589 125.9494 84.67563 125.5538 84.61541 125.1583 84.55519 124.7627 84.52507 124.3671 84.52507 123.9715 84.52507 123.5759 84.55519 123.1803 84.61541 122.7847 84.67563 122.3891 84.74589 121.9935 84.82619 121.5979 84.02321 121.7058 83.11987 121.8047 82.11615 121.8946 81.11243 121.9845 80.11874 122.0564 79.1351 122.1104 78.15145 122.1643 77.21799 122.2093 76.33472 122.2452 75.45145 122.2812 74.70869 122.2992 74.10646 122.2992 74.06631 122.1194 74.0362 121.8676 74.01613 121.544 73.99605 121.2203 73.98602 120.8427 73.98602 120.4111V117.552 104.0658C73.98602 101.0809 74.02617 98.42862 74.10646 96.10899 74.18676 93.78937 74.30721 91.51469 74.4678 89.28498 73.78527 89.3569 73.04252 89.39287 72.23954 89.39287 71.43657 89.39287 70.53322 89.39287 69.5295 89.39287 68.52578 89.39287 67.62243 89.39287 66.81946 89.39287 66.01648 89.39287 65.27373 89.3569 64.5912 89.28498 64.7518 91.51469 64.87224 93.78937 64.95254 96.10899 65.03284 98.42862 65.07299 101.0809 65.07299 104.0658V117.552Z" fill="#f2f3f4"/>
</g>
<g clip-path="url(#clip_6)">
<g>
<g clip-path="url(#clip_7)">
<g clip-path="url(#clip_8)">
<g clip-path="url(#clip_9)">
<path stroke-width="1.832751" stroke-linecap="butt" stroke-miterlimit="10" stroke-linejoin="miter" fill="none" stroke="#f2f3f4" d="M65.07299 52.54796C65.07299 51.50503 65.06295 50.552 65.04287 49.68889 65.0228 48.82577 64.97261 48.19642 64.89232 47.80082 64.29008 47.80082 63.54733 47.8188 62.66406 47.85477 61.78079 47.89073 60.83729 47.93568 59.83357 47.98963 58.82985 48.04357 57.80606 48.1155 56.76219 48.20541 55.71832 48.29531 54.75475 48.39421 53.87147 48.5021 53.95177 48.10651 54.02203 47.71091 54.08226 47.31532 54.14248 46.91972 54.17259 46.52413 54.17259 46.12853 54.17259 45.73294 54.14248 45.33734 54.08226 44.94175 54.02203 44.54615 53.95177 44.15056 53.87147 43.75496 55.23653 43.79093 56.47111 43.82689 57.5752 43.86285 58.67929 43.89882 59.80346 43.92579 60.9477 43.94377 62.09194 43.96175 63.33655 43.97973 64.68154 43.99771 66.02652 44.0157 67.64251 44.02469 69.5295 44.02469 71.41649 44.02469 73.03248 44.0157 74.37747 43.99771 75.72245 43.97973 76.95703 43.96175 78.08119 43.94377 79.20536 43.92579 80.29941 43.89882 81.36336 43.86285 82.4273 43.82689 83.58158 43.79093 84.82619 43.75496 84.74589 44.15056 84.67563 44.54615 84.61541 44.94175 84.55519 45.33734 84.52507 45.73294 84.52507 46.12853 84.52507 46.52413 84.55519 46.91972 84.61541 47.31532 84.67563 47.71091 84.74589 48.10651 84.82619 48.5021 84.02321 48.39421 83.11987 48.29531 82.11615 48.20541 81.11243 48.1155 80.11874 48.04357 79.1351 47.98963 78.15145 47.93568 77.21799 47.89073 76.33472 47.85477 75.45145 47.8188 74.70869 47.80082 74.10646 47.80082 74.06631 47.98064 74.0362 48.23238 74.01613 48.55605 73.99605 48.87972 73.98602 49.25733 73.98602 49.68889V52.54796 66.03415C73.98602 69.0191 74.02617 71.67138 74.10646 73.99101 74.18676 76.31063 74.30721 78.58531 74.4678 80.81502 73.78527 80.7431 73.04252 80.70713 72.23954 80.70713 71.43657 80.70713 70.53322 80.70713 69.5295 80.70713 68.52578 80.70713 67.62243 80.70713 66.81946 80.70713 66.01648 80.70713 65.27373 80.7431 64.5912 80.81502 64.7518 78.58531 64.87224 76.31063 64.95254 73.99101 65.03284 71.67138 65.07299 69.0191 65.07299 66.03415V52.54796Z"/>
</g>
</g>
</g>
</g>
<path transform="matrix(1,0,0,-1,0,170.1)" d="M46.42936 139.6902C46.54826 139.1213 46.65779 138.5541 46.74695 137.9853 46.83609 137.4165 46.88811 136.8493 46.88811 136.2804 46.88812 135.7116 46.83612 135.1444 46.74695 134.5755 46.65781 134.0067 46.54825 133.4395 46.42936 132.8706 47.73708 133.0258 49.1537 133.1505 50.69919 133.2798 52.24472 133.4091 53.76527 133.5432 55.25133 133.6208 56.73738 133.6984 58.14286 133.7396 59.45059 133.7913 60.75831 133.843 61.84072 133.8595 62.73236 133.8595 62.85128 133.2906 62.94965 132.4069 62.97937 131.1657 63.00366 130.1503 63.01024 128.9786 63.01466 127.7901 63.41617 127.7846 63.76 127.7614 64.17916 127.756 65.66496 127.7367 67.45834 127.7219 69.54292 127.7219 71.62748 127.7219 73.42084 127.7367 74.90667 127.756 75.38067 127.7621 75.76315 127.7839 76.21232 127.7901V131.1657C76.21239 131.7863 76.21789 132.337 76.24761 132.8024 76.2773 133.2678 76.32932 133.6009 76.38876 133.8595 77.28037 133.8595 78.3628 133.843 79.67053 133.7913 80.97829 133.7396 82.37817 133.6984 83.8345 133.6208 85.29083 133.5432 86.75943 133.4091 88.24548 133.2798 89.73157 133.1505 91.07946 133.0258 92.2683 132.8706 92.14943 133.4395 92.03987 134.0067 91.95071 134.5755 91.8615 135.1444 91.80956 135.7116 91.80956 136.2804 91.80961 136.8493 91.86155 137.4164 91.95071 137.9853 92.03983 138.5541 92.14942 139.1213 92.2683 139.6902 90.42557 139.6385 88.69149 139.6055 87.11627 139.5538 85.54109 139.5021 83.94622 139.4433 82.28183 139.4174 80.61746 139.3915 78.76824 139.3751 76.77693 139.3492 74.7856 139.3233 72.40728 139.3151 69.61349 139.3151 66.81971 139.3151 64.44137 139.3233 62.45005 139.3492 60.45872 139.3751 58.60396 139.3915 56.90986 139.4174 55.21573 139.4433 53.53364 139.5021 51.89898 139.5538 50.26431 139.6055 48.4504 139.6385 46.42936 139.6902Z" fill="#f2f3f4"/>
</g>
<g clip-path="url(#clip_10)">
<g>
<g clip-path="url(#clip_11)">
<g clip-path="url(#clip_12)">
<g clip-path="url(#clip_13)">
<path stroke-width="1.832751" stroke-linecap="butt" stroke-miterlimit="10" stroke-linejoin="miter" fill="none" stroke="#f2f3f4" d="M46.42936 30.40982C46.54826 30.97866 46.65779 31.54586 46.74695 32.1147 46.83609 32.68355 46.88811 33.25074 46.88811 33.81959 46.88812 34.38845 46.83612 34.95563 46.74695 35.52448 46.65781 36.09332 46.54825 36.66052 46.42936 37.22937 47.73708 37.07421 49.1537 36.94948 50.69919 36.82019 52.24472 36.6909 53.76527 36.55679 55.25133 36.47922 56.73738 36.40164 58.14286 36.36044 59.45059 36.30873 60.75831 36.25703 61.84072 36.24053 62.73236 36.24053 62.85128 36.80938 62.94965 37.69313 62.97937 38.93426 63.00366 39.94974 63.01024 41.12136 63.01466 42.30993 63.41617 42.31538 63.76 42.33859 64.17916 42.34403 65.66496 42.36332 67.45834 42.37812 69.54292 42.37813 71.62748 42.37813 73.42084 42.36332 74.90667 42.34403 75.38067 42.33788 75.76315 42.31609 76.21232 42.30993V38.93426C76.21239 38.31367 76.21789 37.76299 76.24761 37.29756 76.2773 36.83215 76.32932 36.4991 76.38876 36.24053 77.28037 36.24053 78.3628 36.25701 79.67053 36.30873 80.97829 36.36045 82.37817 36.40165 83.8345 36.47922 85.29083 36.5568 86.75943 36.69091 88.24548 36.82019 89.73157 36.9495 91.07946 37.07423 92.2683 37.22937 92.14943 36.66052 92.03987 36.09333 91.95071 35.52448 91.8615 34.95563 91.80956 34.38844 91.80956 33.81959 91.80961 33.25075 91.86155 32.68355 91.95071 32.1147 92.03983 31.54586 92.14942 30.97867 92.2683 30.40982 90.42557 30.46153 88.69149 30.49449 87.11627 30.54621 85.54109 30.59793 83.94622 30.65674 82.28183 30.6826 80.61746 30.70845 78.76824 30.72494 76.77693 30.75079 74.7856 30.77666 72.40728 30.78489 69.61349 30.78489 66.81971 30.78489 64.44137 30.77665 62.45005 30.75079 60.45872 30.72494 58.60396 30.70846 56.90986 30.6826 55.21573 30.65672 53.53364 30.59792 51.89898 30.54621 50.26431 30.49449 48.4504 30.46153 46.42936 30.40982Z"/>
</g>
</g>
</g>
</g>
<path transform="matrix(1,0,0,-1,0,170.1)" d="M64.36978 117.8101C63.98746 117.8101 63.43438 117.7919 62.95011 117.7812V104.2344C62.95012 100.5984 62.89222 97.35476 62.77265 94.52921 62.65306 91.7037 62.47941 88.92651 62.24027 86.21047 63.25666 86.29806 64.34529 86.35489 65.54101 86.35489 66.73671 86.35489 68.09243 86.35489 69.58707 86.35489 71.08172 86.35489 72.43742 86.35489 73.63313 86.35489 74.82884 86.35491 75.91751 86.29808 76.93387 86.21047 76.69474 88.92651 76.52106 91.70366 76.40149 94.52921 76.28189 97.35474 76.22403 100.5984 76.22403 104.2344V117.7812C75.64963 117.7954 75.03099 117.8101 74.59141 117.8101 74.5468 117.6467 74.50724 117.4111 74.48494 117.1169 74.46263 116.8227 74.48496 116.4693 74.48494 116.0771V113.4775 101.2304C74.48494 98.51746 74.50215 96.11755 74.59141 94.00929 74.68063 91.90102 74.83889 89.82567 75.01731 87.79912 74.25896 87.86449 73.42503 87.88578 72.53289 87.88577 71.64071 87.88577 70.63134 87.88577 69.51609 87.88577 68.40087 87.88577 67.39147 87.88577 66.49929 87.88577 65.60711 87.88577 64.77321 87.86452 64.01486 87.79912 64.1933 89.82567 64.35155 91.90103 64.44076 94.00929 64.52998 96.11755 64.54719 98.51745 64.54724 101.2304V113.4775C64.54724 114.4254 64.5696 115.2926 64.54724 116.0771 64.52493 116.8615 64.45894 117.4506 64.36978 117.8101Z" fill="#f2f3f4"/>
</g>
<g clip-path="url(#clip_14)">
<g>
<g clip-path="url(#clip_15)">
<g clip-path="url(#clip_16)">
<g clip-path="url(#clip_17)">
<path stroke-width="1.832751" stroke-linecap="butt" stroke-miterlimit="10" stroke-linejoin="miter" fill="none" stroke="#f2f3f4" d="M64.36978 52.28987C63.98746 52.28987 63.43438 52.30808 62.95011 52.31876V65.86559C62.95012 69.50156 62.89222 72.74524 62.77265 75.57079 62.65306 78.3963 62.47941 81.17349 62.24027 83.88953 63.25666 83.80194 64.34529 83.74511 65.54101 83.74511 66.73671 83.74511 68.09243 83.74511 69.58707 83.74511 71.08172 83.74511 72.43742 83.74511 73.63313 83.74511 74.82884 83.74509 75.91751 83.80192 76.93387 83.88953 76.69474 81.17349 76.52106 78.39634 76.40149 75.57079 76.28189 72.74526 76.22403 69.50158 76.22403 65.86559V52.31876C75.64963 52.30464 75.03099 52.28987 74.59141 52.28987 74.5468 52.4533 74.50724 52.68891 74.48494 52.9831 74.46263 53.27728 74.48496 53.63072 74.48494 54.02294V56.62255 68.86958C74.48494 71.58254 74.50215 73.98245 74.59141 76.09071 74.68063 78.19898 74.83889 80.27433 75.01731 82.30088 74.25896 82.23551 73.42503 82.21422 72.53289 82.21423 71.64071 82.21423 70.63134 82.21423 69.51609 82.21423 68.40087 82.21423 67.39147 82.21423 66.49929 82.21423 65.60711 82.21423 64.77321 82.23548 64.01486 82.30088 64.1933 80.27433 64.35155 78.19897 64.44076 76.09071 64.52998 73.98245 64.54719 71.58255 64.54724 68.86958V56.62255C64.54724 55.67465 64.5696 54.80744 64.54724 54.02294 64.52493 53.23847 64.45894 52.64943 64.36978 52.28987Z"/>
</g>
</g>
</g>
</g>
</g>
<g clip-path="url(#clip_18)">
<g>
<g clip-path="url(#clip_19)">
<g clip-path="url(#clip_20)">
<g clip-path="url(#clip_21)">
<path stroke-width="4.950591" stroke-linecap="butt" stroke-miterlimit="10" stroke-linejoin="miter" fill="none" stroke="#f2f3f4" d="M35.5023 53.13103C35.5023 34.23112 50.74368 18.90972 69.54486 18.90972 88.34604 18.90972 103.5874 34.23112 103.5874 53.13103 103.5874 72.03094 88.34604 87.35234 69.54486 87.35234 50.74368 87.35234 35.5023 72.03094 35.5023 53.13103Z"/>
</g>
</g>
</g>
</g>
<path transform="matrix(1,0,0,-1,0,170.1)" d="M29.68783 25.19777C29.68783 25.42416 29.68658 25.63103 29.68408 25.81838 29.68158 26.00574 29.67532 26.14235 29.66531 26.22822 29.59024 26.22822 29.49765 26.22431 29.38755 26.21651 29.27745 26.2087 29.15984 26.19894 29.03472 26.18723 28.9096 26.17552 28.78198 26.15991 28.65186 26.1404 28.52174 26.12088 28.40163 26.09941 28.29152 26.07599 28.30153 26.16186 28.31029 26.24773 28.3178 26.3336 28.32531 26.41947 28.32906 26.50534 28.32906 26.59122 28.32906 26.67709 28.32531 26.76296 28.3178 26.84883 28.31029 26.9347 28.30153 27.02057 28.29152 27.10644 28.46168 27.09863 28.61558 27.09082 28.75321 27.08302 28.89084 27.07521 29.03097 27.06936 29.1736 27.06545 29.31623 27.06155 29.47138 27.05765 29.63904 27.05374 29.80669 27.04984 30.00813 27.04789 30.24335 27.04789 30.47857 27.04789 30.68001 27.04984 30.84767 27.05374 31.01533 27.05765 31.16922 27.06155 31.30935 27.06545 31.44948 27.06936 31.58586 27.07521 31.71848 27.08302 31.85111 27.09082 31.99499 27.09863 32.15014 27.10644 32.14013 27.02057 32.13137 26.9347 32.12386 26.84883 32.11636 26.76296 32.1126 26.67709 32.1126 26.59122 32.1126 26.50534 32.11636 26.41947 32.12386 26.3336 32.13137 26.24773 32.14013 26.16186 32.15014 26.07599 32.05004 26.09941 31.93744 26.12088 31.81232 26.1404 31.6872 26.15991 31.56334 26.17552 31.44072 26.18723 31.31811 26.19894 31.20175 26.2087 31.09165 26.21651 30.98154 26.22431 30.88896 26.22822 30.81389 26.22822 30.80888 26.18919 30.80513 26.13454 30.80263 26.06428 30.80012 25.99403 30.79887 25.91206 30.79887 25.81838V25.19777 22.27037C30.79887 21.62244 30.80388 21.04672 30.81389 20.54321 30.8239 20.0397 30.83891 19.54594 30.85893 19.06194 30.77385 19.07756 30.68126 19.08536 30.58117 19.08536 30.48107 19.08536 30.36847 19.08536 30.24335 19.08536 30.11823 19.08536 30.00563 19.08536 29.90554 19.08536 29.80544 19.08536 29.71286 19.07756 29.62778 19.06194 29.64779 19.54594 29.66281 20.0397 29.67282 20.54321 29.68283 21.04672 29.68783 21.62244 29.68783 22.27037V25.19777Z" fill="#83b7ee"/>
</g>
<g clip-path="url(#clip_22)">
<g>
<g clip-path="url(#clip_23)">
<g clip-path="url(#clip_24)">
<g clip-path="url(#clip_25)">
<path stroke-width="1.832751" stroke-linecap="butt" stroke-miterlimit="10" stroke-linejoin="miter" fill="none" stroke="#f2f3f4" d="M29.68783 144.9022C29.68783 144.6758 29.68658 144.469 29.68408 144.2816 29.68158 144.0943 29.67532 143.9577 29.66531 143.8718 29.59024 143.8718 29.49765 143.8757 29.38755 143.8835 29.27745 143.8913 29.15984 143.9011 29.03472 143.9128 28.9096 143.9245 28.78198 143.9401 28.65186 143.9596 28.52174 143.9791 28.40163 144.0006 28.29152 144.024 28.30153 143.9381 28.31029 143.8523 28.3178 143.7664 28.32531 143.6805 28.32906 143.5947 28.32906 143.5088 28.32906 143.4229 28.32531 143.337 28.3178 143.2512 28.31029 143.1653 28.30153 143.0794 28.29152 142.9936 28.46168 143.0014 28.61558 143.0092 28.75321 143.017 28.89084 143.0248 29.03097 143.0306 29.1736 143.0345 29.31623 143.0384 29.47138 143.0424 29.63904 143.0463 29.80669 143.0502 30.00813 143.0521 30.24335 143.0521 30.47857 143.0521 30.68001 143.0502 30.84767 143.0463 31.01533 143.0424 31.16922 143.0384 31.30935 143.0345 31.44948 143.0306 31.58586 143.0248 31.71848 143.017 31.85111 143.0092 31.99499 143.0014 32.15014 142.9936 32.14013 143.0794 32.13137 143.1653 32.12386 143.2512 32.11636 143.337 32.1126 143.4229 32.1126 143.5088 32.1126 143.5947 32.11636 143.6805 32.12386 143.7664 32.13137 143.8523 32.14013 143.9381 32.15014 144.024 32.05004 144.0006 31.93744 143.9791 31.81232 143.9596 31.6872 143.9401 31.56334 143.9245 31.44072 143.9128 31.31811 143.9011 31.20175 143.8913 31.09165 143.8835 30.98154 143.8757 30.88896 143.8718 30.81389 143.8718 30.80888 143.9108 30.80513 143.9655 30.80263 144.0357 30.80012 144.106 30.79887 144.1879 30.79887 144.2816V144.9022 147.8296C30.79887 148.4776 30.80388 149.0533 30.81389 149.5568 30.8239 150.0603 30.83891 150.5541 30.85893 151.0381 30.77385 151.0224 30.68126 151.0146 30.58117 151.0146 30.48107 151.0146 30.36847 151.0146 30.24335 151.0146 30.11823 151.0146 30.00563 151.0146 29.90554 151.0146 29.80544 151.0146 29.71286 151.0224 29.62778 151.0381 29.64779 150.5541 29.66281 150.0603 29.67282 149.5568 29.68283 149.0533 29.68783 148.4776 29.68783 147.8296V144.9022Z"/>
</g>
</g>
</g>
</g>
<path transform="matrix(1,0,0,-1,0,170.1)" d="M36.85176 23.86288C36.85176 24.51081 36.84676 25.08653 36.83675 25.59004 36.82674 26.09356 36.81172 26.59902 36.7917 27.10644 37.01691 27.09863 37.23962 27.08692 37.45983 27.07131 37.68004 27.0557 37.90274 27.04789 38.12796 27.04789 38.4983 27.04789 38.82736 27.05374 39.11513 27.06545 39.4029 27.07716 39.59683 27.09082 39.69692 27.10644 39.67691 26.98154 39.6669 26.8176 39.6669 26.61463 39.6669 26.48973 39.6694 26.39215 39.6744 26.32189 39.67941 26.25164 39.68692 26.17357 39.69692 26.0877 39.55179 26.10332 39.39289 26.11893 39.22023 26.13454 39.04757 26.15015 38.87991 26.16577 38.71726 26.18138 38.5546 26.19699 38.40822 26.2087 38.2781 26.21651 38.14797 26.22431 38.05539 26.22822 38.00034 26.22822 37.98032 25.79887 37.96906 25.37342 37.96655 24.95187 37.96405 24.53033 37.9628 24.10488 37.9628 23.67553 38.28811 23.68333 38.58213 23.69504 38.84488 23.71065 39.10762 23.72627 39.38163 23.74578 39.6669 23.7692 39.65188 23.63649 39.64187 23.53501 39.63687 23.46475 39.63186 23.3945 39.62936 23.32033 39.62936 23.24227 39.62936 23.17982 39.63311 23.11542 39.64062 23.04906 39.64813 22.98271 39.65689 22.88708 39.6669 22.76218 39.09636 22.83243 38.52833 22.86756 37.9628 22.86756 37.9628 22.61776 37.96155 22.36795 37.95905 22.11815 37.95654 21.86834 37.95529 21.61854 37.95529 21.36873 37.95529 20.86132 37.9628 20.37342 37.97781 19.90504 38.26308 19.90504 38.54835 19.91674 38.83362 19.94016 39.11888 19.96358 39.40665 20.00261 39.69692 20.05726 39.68692 19.97139 39.67941 19.89333 39.6744 19.82307 39.6694 19.75281 39.6669 19.65523 39.6669 19.53033 39.6669 19.40543 39.6694 19.30785 39.6744 19.23759 39.67941 19.16733 39.68692 19.10878 39.69692 19.06194 39.5618 19.06975 39.39539 19.07561 39.19771 19.07951 39.00002 19.08341 38.72852 19.08536 38.38319 19.08536 38.07791 19.08536 37.83018 19.08536 37.64 19.08536 37.45482 19.08536 37.30594 19.08536 37.19333 19.08536 37.08072 19.08536 36.99564 19.08341 36.93809 19.07951 36.88054 19.07561 36.83174 19.06975 36.7917 19.06194 36.81172 19.54594 36.82674 20.0397 36.83675 20.54321 36.84676 21.04672 36.85176 21.62244 36.85176 22.27037V23.86288Z" fill="#83b7ee"/>
</g>
<g clip-path="url(#clip_26)">
<g>
<g clip-path="url(#clip_27)">
<g clip-path="url(#clip_28)">
<g clip-path="url(#clip_29)">
<path stroke-width="1.832751" stroke-linecap="butt" stroke-miterlimit="10" stroke-linejoin="miter" fill="none" stroke="#f2f3f4" d="M36.85176 146.2371C36.85176 145.5892 36.84676 145.0135 36.83675 144.51 36.82674 144.0064 36.81172 143.501 36.7917 142.9936 37.01691 143.0014 37.23962 143.0131 37.45983 143.0287 37.68004 143.0443 37.90274 143.0521 38.12796 143.0521 38.4983 143.0521 38.82736 143.0463 39.11513 143.0345 39.4029 143.0228 39.59683 143.0092 39.69692 142.9936 39.67691 143.1185 39.6669 143.2824 39.6669 143.4854 39.6669 143.6103 39.6694 143.7078 39.6744 143.7781 39.67941 143.8484 39.68692 143.9264 39.69692 144.0123 39.55179 143.9967 39.39289 143.9811 39.22023 143.9655 39.04757 143.9498 38.87991 143.9342 38.71726 143.9186 38.5546 143.903 38.40822 143.8913 38.2781 143.8835 38.14797 143.8757 38.05539 143.8718 38.00034 143.8718 37.98032 144.3011 37.96906 144.7266 37.96655 145.1481 37.96405 145.5697 37.9628 145.9951 37.9628 146.4245 38.28811 146.4167 38.58213 146.405 38.84488 146.3893 39.10762 146.3737 39.38163 146.3542 39.6669 146.3308 39.65188 146.4635 39.64187 146.565 39.63687 146.6352 39.63186 146.7055 39.62936 146.7797 39.62936 146.8577 39.62936 146.9202 39.63311 146.9846 39.64062 147.0509 39.64813 147.1173 39.65689 147.2129 39.6669 147.3378 39.09636 147.2676 38.52833 147.2324 37.9628 147.2324 37.9628 147.4822 37.96155 147.732 37.95905 147.9819 37.95654 148.2317 37.95529 148.4815 37.95529 148.7313 37.95529 149.2387 37.9628 149.7266 37.97781 150.195 38.26308 150.195 38.54835 150.1833 38.83362 150.1598 39.11888 150.1364 39.40665 150.0974 39.69692 150.0427 39.68692 150.1286 39.67941 150.2067 39.6744 150.2769 39.6694 150.3472 39.6669 150.4448 39.6669 150.5697 39.6669 150.6946 39.6694 150.7922 39.6744 150.8624 39.67941 150.9327 39.68692 150.9912 39.69692 151.0381 39.5618 151.0302 39.39539 151.0244 39.19771 151.0205 39.00002 151.0166 38.72852 151.0146 38.38319 151.0146 38.07791 151.0146 37.83018 151.0146 37.64 151.0146 37.45482 151.0146 37.30594 151.0146 37.19333 151.0146 37.08072 151.0146 36.99564 151.0166 36.93809 151.0205 36.88054 151.0244 36.83174 151.0302 36.7917 151.0381 36.81172 150.5541 36.82674 150.0603 36.83675 149.5568 36.84676 149.0533 36.85176 148.4776 36.85176 147.8296V146.2371Z"/>
</g>
</g>
</g>
</g>
<path transform="matrix(1,0,0,-1,0,170.1)" d="M48.67755 20.38513C48.63752 20.22119 48.60248 20.05531 48.57246 19.88747 48.54243 19.71963 48.52241 19.55375 48.5124 19.38981 48.10702 19.06975 47.59654 18.90972 46.98097 18.90972 46.54556 18.90972 46.15644 19.00535 45.81362 19.1966 45.4708 19.38786 45.18053 19.65718 44.94281 20.00457 44.70508 20.35195 44.52366 20.76374 44.39855 21.23993 44.27343 21.71612 44.21087 22.23134 44.21087 22.7856 44.21087 23.59746 44.2922 24.28638 44.45485 24.85234 44.6175 25.4183 44.83521 25.87888 45.10796 26.23407 45.38072 26.58926 45.69726 26.84883 46.0576 27.01276 46.41794 27.1767 46.79579 27.25866 47.19116 27.25866 47.32128 27.25866 47.45891 27.24305 47.60405 27.21182 47.74918 27.1806 47.88932 27.13961 48.02444 27.08887 48.15957 27.03813 48.28844 26.97763 48.41105 26.90737 48.53367 26.83712 48.63752 26.76296 48.7226 26.68489 48.67255 26.48973 48.63376 26.29262 48.60624 26.09356 48.57871 25.89449 48.55994 25.69348 48.54993 25.49051H48.44484C48.25466 25.86522 48.05948 26.13259 47.85929 26.29262 47.6591 26.45265 47.42388 26.53267 47.15363 26.53267 46.95344 26.53267 46.752 26.46241 46.54931 26.32189 46.34662 26.18138 46.1627 25.9667 45.99754 25.67787 45.83239 25.38903 45.69851 25.02018 45.59592 24.57131 45.49332 24.12244 45.44202 23.58575 45.44202 22.96124 45.44202 22.36015 45.49457 21.84688 45.59967 21.42143 45.70477 20.99598 45.84115 20.64859 46.0088 20.37927 46.17646 20.10995 46.36664 19.91284 46.57934 19.78794 46.79204 19.66304 47.00599 19.60059 47.22119 19.60059 47.3413 19.60059 47.46392 19.62205 47.58903 19.66499 47.71415 19.70792 47.83677 19.76647 47.95688 19.84063 48.07699 19.91479 48.19085 20.00652 48.29845 20.11581 48.40605 20.2251 48.49989 20.3461 48.57996 20.47881L48.67755 20.38513Z" fill="#83b7ee"/>
</g>
<g clip-path="url(#clip_30)">
<g>
<g clip-path="url(#clip_31)">
<g clip-path="url(#clip_32)">
<g clip-path="url(#clip_33)">
<path stroke-width="1.832751" stroke-linecap="butt" stroke-miterlimit="10" stroke-linejoin="miter" fill="none" stroke="#f2f3f4" d="M48.67755 149.7149C48.63752 149.8788 48.60248 150.0447 48.57246 150.2125 48.54243 150.3804 48.52241 150.5463 48.5124 150.7102 48.10702 151.0302 47.59654 151.1903 46.98097 151.1903 46.54556 151.1903 46.15644 151.0947 45.81362 150.9034 45.4708 150.7121 45.18053 150.4428 44.94281 150.0954 44.70508 149.748 44.52366 149.3363 44.39855 148.8601 44.27343 148.3839 44.21087 147.8687 44.21087 147.3144 44.21087 146.5025 44.2922 145.8136 44.45485 145.2477 44.6175 144.6817 44.83521 144.2211 45.10796 143.8659 45.38072 143.5107 45.69726 143.2512 46.0576 143.0872 46.41794 142.9233 46.79579 142.8413 47.19116 142.8413 47.32128 142.8413 47.45891 142.857 47.60405 142.8882 47.74918 142.9194 47.88932 142.9604 48.02444 143.0111 48.15957 143.0619 48.28844 143.1224 48.41105 143.1926 48.53367 143.2629 48.63752 143.337 48.7226 143.4151 48.67255 143.6103 48.63376 143.8074 48.60624 144.0064 48.57871 144.2055 48.55994 144.4065 48.54993 144.6095H48.44484C48.25466 144.2348 48.05948 143.9674 47.85929 143.8074 47.6591 143.6473 47.42388 143.5673 47.15363 143.5673 46.95344 143.5673 46.752 143.6376 46.54931 143.7781 46.34662 143.9186 46.1627 144.1333 45.99754 144.4221 45.83239 144.711 45.69851 145.0798 45.59592 145.5287 45.49332 145.9776 45.44202 146.5142 45.44202 147.1388 45.44202 147.7399 45.49457 148.2531 45.59967 148.6786 45.70477 149.104 45.84115 149.4514 46.0088 149.7207 46.17646 149.99 46.36664 150.1872 46.57934 150.3121 46.79204 150.437 47.00599 150.4994 47.22119 150.4994 47.3413 150.4994 47.46392 150.4779 47.58903 150.435 47.71415 150.3921 47.83677 150.3335 47.95688 150.2594 48.07699 150.1852 48.19085 150.0935 48.29845 149.9842 48.40605 149.8749 48.49989 149.7539 48.57996 149.6212L48.67755 149.7149Z"/>
</g>
</g>
</g>
</g>
<path transform="matrix(1,0,0,-1,0,170.1)" d="M56.96003 22.93782C56.76985 22.94563 56.57967 22.95539 56.3895 22.96709 56.19932 22.9788 56.00914 22.98466 55.81896 22.98466 55.62878 22.98466 55.43861 22.98076 55.24843 22.97295 55.05825 22.96514 54.86807 22.95343 54.67789 22.93782V22.27037C54.67789 21.62244 54.6829 21.04672 54.69291 20.54321 54.70292 20.0397 54.71793 19.54594 54.73795 19.06194 54.65287 19.07756 54.56028 19.08536 54.46019 19.08536 54.3601 19.08536 54.24749 19.08536 54.12237 19.08536 53.99726 19.08536 53.88465 19.08536 53.78456 19.08536 53.68446 19.08536 53.59188 19.07756 53.5068 19.06194 53.52681 19.54594 53.54183 20.0397 53.55184 20.54321 53.56185 21.04672 53.56685 21.62244 53.56685 22.27037V23.86288C53.56685 24.51081 53.56185 25.08653 53.55184 25.59004 53.54183 26.09356 53.52681 26.59902 53.5068 27.10644 53.59188 27.09082 53.68446 27.07716 53.78456 27.06545 53.88465 27.05374 53.99726 27.04789 54.12237 27.04789 54.24749 27.04789 54.3601 27.05374 54.46019 27.06545 54.56028 27.07716 54.65287 27.09082 54.73795 27.10644 54.71293 26.59902 54.69666 26.09746 54.68915 25.60175 54.68165 25.10605 54.67789 24.53423 54.67789 23.8863 54.80801 23.87849 54.96441 23.87264 55.14708 23.86873 55.32975 23.86483 55.55622 23.86288 55.82647 23.86288 56.09672 23.86288 56.31693 23.86483 56.48709 23.86873 56.65725 23.87264 56.81489 23.87849 56.96003 23.8863 56.96003 24.53423 56.95503 25.10605 56.94502 25.60175 56.93501 26.09746 56.91999 26.59902 56.89997 27.10644 56.98505 27.09082 57.07764 27.07716 57.17773 27.06545 57.27783 27.05374 57.39043 27.04789 57.51555 27.04789 57.64067 27.04789 57.75327 27.05374 57.85337 27.06545 57.95346 27.07716 58.04605 27.09082 58.13113 27.10644 58.11111 26.59902 58.09609 26.09356 58.08609 25.59004 58.07608 25.08653 58.07107 24.51081 58.07107 23.86288V22.27037C58.07107 21.62244 58.07608 21.04672 58.08609 20.54321 58.09609 20.0397 58.11111 19.54594 58.13113 19.06194 58.04605 19.07756 57.95346 19.08536 57.85337 19.08536 57.75327 19.08536 57.64067 19.08536 57.51555 19.08536 57.39043 19.08536 57.27783 19.08536 57.17773 19.08536 57.07764 19.08536 56.98505 19.07756 56.89997 19.06194 56.91999 19.54594 56.93501 20.0397 56.94502 20.54321 56.95503 21.04672 56.96003 21.62244 56.96003 22.27037V22.93782Z" fill="#83b7ee"/>
</g>
<g clip-path="url(#clip_34)">
<g>
<g clip-path="url(#clip_35)">
<g clip-path="url(#clip_36)">
<g clip-path="url(#clip_37)">
<path stroke-width="1.832751" stroke-linecap="butt" stroke-miterlimit="10" stroke-linejoin="miter" fill="none" stroke="#f2f3f4" d="M56.96003 147.1622C56.76985 147.1544 56.57967 147.1446 56.3895 147.1329 56.19932 147.1212 56.00914 147.1153 55.81896 147.1153 55.62878 147.1153 55.43861 147.1192 55.24843 147.1271 55.05825 147.1349 54.86807 147.1466 54.67789 147.1622V147.8296C54.67789 148.4776 54.6829 149.0533 54.69291 149.5568 54.70292 150.0603 54.71793 150.5541 54.73795 151.0381 54.65287 151.0224 54.56028 151.0146 54.46019 151.0146 54.3601 151.0146 54.24749 151.0146 54.12237 151.0146 53.99726 151.0146 53.88465 151.0146 53.78456 151.0146 53.68446 151.0146 53.59188 151.0224 53.5068 151.0381 53.52681 150.5541 53.54183 150.0603 53.55184 149.5568 53.56185 149.0533 53.56685 148.4776 53.56685 147.8296V146.2371C53.56685 145.5892 53.56185 145.0135 53.55184 144.51 53.54183 144.0064 53.52681 143.501 53.5068 142.9936 53.59188 143.0092 53.68446 143.0228 53.78456 143.0345 53.88465 143.0463 53.99726 143.0521 54.12237 143.0521 54.24749 143.0521 54.3601 143.0463 54.46019 143.0345 54.56028 143.0228 54.65287 143.0092 54.73795 142.9936 54.71293 143.501 54.69666 144.0025 54.68915 144.4982 54.68165 144.994 54.67789 145.5658 54.67789 146.2137 54.80801 146.2215 54.96441 146.2274 55.14708 146.2313 55.32975 146.2352 55.55622 146.2371 55.82647 146.2371 56.09672 146.2371 56.31693 146.2352 56.48709 146.2313 56.65725 146.2274 56.81489 146.2215 56.96003 146.2137 56.96003 145.5658 56.95503 144.994 56.94502 144.4982 56.93501 144.0025 56.91999 143.501 56.89997 142.9936 56.98505 143.0092 57.07764 143.0228 57.17773 143.0345 57.27783 143.0463 57.39043 143.0521 57.51555 143.0521 57.64067 143.0521 57.75327 143.0463 57.85337 143.0345 57.95346 143.0228 58.04605 143.0092 58.13113 142.9936 58.11111 143.501 58.09609 144.0064 58.08609 144.51 58.07608 145.0135 58.07107 145.5892 58.07107 146.2371V147.8296C58.07107 148.4776 58.07608 149.0533 58.08609 149.5568 58.09609 150.0603 58.11111 150.5541 58.13113 151.0381 58.04605 151.0224 57.95346 151.0146 57.85337 151.0146 57.75327 151.0146 57.64067 151.0146 57.51555 151.0146 57.39043 151.0146 57.27783 151.0146 57.17773 151.0146 57.07764 151.0146 56.98505 151.0224 56.89997 151.0381 56.91999 150.5541 56.93501 150.0603 56.94502 149.5568 56.95503 149.0533 56.96003 148.4776 56.96003 147.8296V147.1622Z"/>
</g>
</g>
</g>
</g>
<path transform="matrix(1,0,0,-1,0,170.1)" d="M64.86715 22.29379V21.00574H62.9979V22.29379H64.86715Z" fill="#83b7ee"/>
</g>
<g clip-path="url(#clip_38)">
<g>
<g clip-path="url(#clip_39)">
<g clip-path="url(#clip_40)">
<g clip-path="url(#clip_41)">
<path stroke-width="1.832751" stroke-linecap="butt" stroke-miterlimit="10" stroke-linejoin="miter" fill="none" stroke="#f2f3f4" d="M64.86715 147.8062V149.0943H62.9979V147.8062H64.86715Z"/>
</g>
</g>
</g>
</g>
<path transform="matrix(1,0,0,-1,0,170.1)" d="M70.67982 25.19777C70.67982 25.42416 70.67857 25.63103 70.67606 25.81838 70.67356 26.00574 70.66731 26.14235 70.6573 26.22822 70.58223 26.22822 70.48964 26.22431 70.37954 26.21651 70.26943 26.2087 70.15182 26.19894 70.02671 26.18723 69.90159 26.17552 69.77397 26.15991 69.64385 26.1404 69.51372 26.12088 69.39361 26.09941 69.28351 26.07599 69.29352 26.16186 69.30228 26.24773 69.30978 26.3336 69.31729 26.41947 69.32104 26.50534 69.32104 26.59122 69.32104 26.67709 69.31729 26.76296 69.30978 26.84883 69.30228 26.9347 69.29352 27.02057 69.28351 27.10644 69.45367 27.09863 69.60756 27.09082 69.74519 27.08302 69.88282 27.07521 70.02295 27.06936 70.16559 27.06545 70.30822 27.06155 70.46336 27.05765 70.63102 27.05374 70.79868 27.04984 71.00012 27.04789 71.23534 27.04789 71.47056 27.04789 71.672 27.04984 71.83965 27.05374 72.00731 27.05765 72.1612 27.06155 72.30134 27.06545 72.44147 27.06936 72.57784 27.07521 72.71047 27.08302 72.84309 27.09082 72.98698 27.09863 73.14212 27.10644 73.13211 27.02057 73.12336 26.9347 73.11585 26.84883 73.10834 26.76296 73.10459 26.67709 73.10459 26.59122 73.10459 26.50534 73.10834 26.41947 73.11585 26.3336 73.12336 26.24773 73.13211 26.16186 73.14212 26.07599 73.04203 26.09941 72.92942 26.12088 72.80431 26.1404 72.67919 26.15991 72.55532 26.17552 72.43271 26.18723 72.31009 26.19894 72.19374 26.2087 72.08363 26.21651 71.97353 26.22431 71.88094 26.22822 71.80587 26.22822 71.80087 26.18919 71.79711 26.13454 71.79461 26.06428 71.79211 25.99403 71.79086 25.91206 71.79086 25.81838V25.19777 22.27037C71.79086 21.62244 71.79586 21.04672 71.80587 20.54321 71.81588 20.0397 71.8309 19.54594 71.85091 19.06194 71.76583 19.07756 71.67325 19.08536 71.57315 19.08536 71.47306 19.08536 71.36045 19.08536 71.23534 19.08536 71.11022 19.08536 70.99761 19.08536 70.89752 19.08536 70.79743 19.08536 70.70484 19.07756 70.61976 19.06194 70.63978 19.54594 70.65479 20.0397 70.6648 20.54321 70.67481 21.04672 70.67982 21.62244 70.67982 22.27037V25.19777Z" fill="#83b7ee"/>
</g>
<g clip-path="url(#clip_42)">
<g>
<g clip-path="url(#clip_43)">
<g clip-path="url(#clip_44)">
<g clip-path="url(#clip_45)">
<path stroke-width="1.832751" stroke-linecap="butt" stroke-miterlimit="10" stroke-linejoin="miter" fill="none" stroke="#f2f3f4" d="M70.67982 144.9022C70.67982 144.6758 70.67857 144.469 70.67606 144.2816 70.67356 144.0943 70.66731 143.9577 70.6573 143.8718 70.58223 143.8718 70.48964 143.8757 70.37954 143.8835 70.26943 143.8913 70.15182 143.9011 70.02671 143.9128 69.90159 143.9245 69.77397 143.9401 69.64385 143.9596 69.51372 143.9791 69.39361 144.0006 69.28351 144.024 69.29352 143.9381 69.30228 143.8523 69.30978 143.7664 69.31729 143.6805 69.32104 143.5947 69.32104 143.5088 69.32104 143.4229 69.31729 143.337 69.30978 143.2512 69.30228 143.1653 69.29352 143.0794 69.28351 142.9936 69.45367 143.0014 69.60756 143.0092 69.74519 143.017 69.88282 143.0248 70.02295 143.0306 70.16559 143.0345 70.30822 143.0384 70.46336 143.0424 70.63102 143.0463 70.79868 143.0502 71.00012 143.0521 71.23534 143.0521 71.47056 143.0521 71.672 143.0502 71.83965 143.0463 72.00731 143.0424 72.1612 143.0384 72.30134 143.0345 72.44147 143.0306 72.57784 143.0248 72.71047 143.017 72.84309 143.0092 72.98698 143.0014 73.14212 142.9936 73.13211 143.0794 73.12336 143.1653 73.11585 143.2512 73.10834 143.337 73.10459 143.4229 73.10459 143.5088 73.10459 143.5947 73.10834 143.6805 73.11585 143.7664 73.12336 143.8523 73.13211 143.9381 73.14212 144.024 73.04203 144.0006 72.92942 143.9791 72.80431 143.9596 72.67919 143.9401 72.55532 143.9245 72.43271 143.9128 72.31009 143.9011 72.19374 143.8913 72.08363 143.8835 71.97353 143.8757 71.88094 143.8718 71.80587 143.8718 71.80087 143.9108 71.79711 143.9655 71.79461 144.0357 71.79211 144.106 71.79086 144.1879 71.79086 144.2816V144.9022 147.8296C71.79086 148.4776 71.79586 149.0533 71.80587 149.5568 71.81588 150.0603 71.8309 150.5541 71.85091 151.0381 71.76583 151.0224 71.67325 151.0146 71.57315 151.0146 71.47306 151.0146 71.36045 151.0146 71.23534 151.0146 71.11022 151.0146 70.99761 151.0146 70.89752 151.0146 70.79743 151.0146 70.70484 151.0224 70.61976 151.0381 70.63978 150.5541 70.65479 150.0603 70.6648 149.5568 70.67481 149.0533 70.67982 148.4776 70.67982 147.8296V144.9022Z"/>
</g>
</g>
</g>
</g>
<path transform="matrix(1,0,0,-1,0,170.1)" d="M77.94134 23.86288C77.94134 24.51081 77.93633 25.08653 77.92632 25.59004 77.91631 26.09356 77.9013 26.59902 77.88128 27.10644 77.96636 27.09082 78.05895 27.07716 78.15904 27.06545 78.25913 27.05374 78.37174 27.04789 78.49686 27.04789 78.62197 27.04789 78.73458 27.05374 78.83467 27.06545 78.93477 27.07716 79.02735 27.09082 79.11243 27.10644 79.09241 26.59902 79.0774 26.09356 79.06739 25.59004 79.05738 25.08653 79.05238 24.51081 79.05238 23.86288V22.27037C79.05238 21.62244 79.05738 21.04672 79.06739 20.54321 79.0774 20.0397 79.09241 19.54594 79.11243 19.06194 79.02735 19.07756 78.93477 19.08536 78.83467 19.08536 78.73458 19.08536 78.62197 19.08536 78.49686 19.08536 78.37174 19.08536 78.25913 19.08536 78.15904 19.08536 78.05895 19.08536 77.96636 19.07756 77.88128 19.06194 77.9013 19.54594 77.91631 20.0397 77.92632 20.54321 77.93633 21.04672 77.94134 21.62244 77.94134 22.27037V23.86288Z" fill="#83b7ee"/>
</g>
<g clip-path="url(#clip_46)">
<g>
<g clip-path="url(#clip_47)">
<g clip-path="url(#clip_48)">
<g clip-path="url(#clip_49)">
<path stroke-width="1.832751" stroke-linecap="butt" stroke-miterlimit="10" stroke-linejoin="miter" fill="none" stroke="#f2f3f4" d="M77.94134 146.2371C77.94134 145.5892 77.93633 145.0135 77.92632 144.51 77.91631 144.0064 77.9013 143.501 77.88128 142.9936 77.96636 143.0092 78.05895 143.0228 78.15904 143.0345 78.25913 143.0463 78.37174 143.0521 78.49686 143.0521 78.62197 143.0521 78.73458 143.0463 78.83467 143.0345 78.93477 143.0228 79.02735 143.0092 79.11243 142.9936 79.09241 143.501 79.0774 144.0064 79.06739 144.51 79.05738 145.0135 79.05238 145.5892 79.05238 146.2371V147.8296C79.05238 148.4776 79.05738 149.0533 79.06739 149.5568 79.0774 150.0603 79.09241 150.5541 79.11243 151.0381 79.02735 151.0224 78.93477 151.0146 78.83467 151.0146 78.73458 151.0146 78.62197 151.0146 78.49686 151.0146 78.37174 151.0146 78.25913 151.0146 78.15904 151.0146 78.05895 151.0146 77.96636 151.0224 77.88128 151.0381 77.9013 150.5541 77.91631 150.0603 77.92632 149.5568 77.93633 149.0533 77.94134 148.4776 77.94134 147.8296V146.2371Z"/>
</g>
</g>
</g>
</g>
<path transform="matrix(1,0,0,-1,0,170.1)" d="M85.24039 25.19777C85.24039 25.42416 85.23914 25.63103 85.23664 25.81838 85.23414 26.00574 85.22788 26.14235 85.21787 26.22822 85.1428 26.22822 85.05021 26.22431 84.94011 26.21651 84.83001 26.2087 84.7124 26.19894 84.58728 26.18723 84.46216 26.17552 84.33454 26.15991 84.20442 26.1404 84.0743 26.12088 83.95419 26.09941 83.84408 26.07599 83.85409 26.16186 83.86285 26.24773 83.87036 26.3336 83.87787 26.41947 83.88162 26.50534 83.88162 26.59122 83.88162 26.67709 83.87787 26.76296 83.87036 26.84883 83.86285 26.9347 83.85409 27.02057 83.84408 27.10644 84.01424 27.09863 84.16814 27.09082 84.30577 27.08302 84.4434 27.07521 84.58353 27.06936 84.72616 27.06545 84.86879 27.06155 85.02394 27.05765 85.1916 27.05374 85.35925 27.04984 85.56069 27.04789 85.79591 27.04789 86.03113 27.04789 86.23257 27.04984 86.40023 27.05374 86.56788 27.05765 86.72178 27.06155 86.86191 27.06545 87.00204 27.06936 87.13842 27.07521 87.27104 27.08302 87.40367 27.09082 87.54755 27.09863 87.7027 27.10644 87.69269 27.02057 87.68393 26.9347 87.67642 26.84883 87.66892 26.76296 87.66516 26.67709 87.66516 26.59122 87.66516 26.50534 87.66892 26.41947 87.67642 26.3336 87.68393 26.24773 87.69269 26.16186 87.7027 26.07599 87.6026 26.09941 87.49 26.12088 87.36488 26.1404 87.23976 26.15991 87.1159 26.17552 86.99328 26.18723 86.87067 26.19894 86.75431 26.2087 86.64421 26.21651 86.5341 26.22431 86.44152 26.22822 86.36645 26.22822 86.36144 26.18919 86.35769 26.13454 86.35519 26.06428 86.35268 25.99403 86.35143 25.91206 86.35143 25.81838V25.19777 22.27037C86.35143 21.62244 86.35644 21.04672 86.36645 20.54321 86.37646 20.0397 86.39147 19.54594 86.41149 19.06194 86.32641 19.07756 86.23382 19.08536 86.13373 19.08536 86.03363 19.08536 85.92103 19.08536 85.79591 19.08536 85.67079 19.08536 85.55819 19.08536 85.4581 19.08536 85.358 19.08536 85.26541 19.07756 85.18034 19.06194 85.20035 19.54594 85.21537 20.0397 85.22538 20.54321 85.23539 21.04672 85.24039 21.62244 85.24039 22.27037V25.19777Z" fill="#83b7ee"/>
</g>
<g clip-path="url(#clip_50)">
<g>
<g clip-path="url(#clip_51)">
<g clip-path="url(#clip_52)">
<g clip-path="url(#clip_53)">
<path stroke-width="1.832751" stroke-linecap="butt" stroke-miterlimit="10" stroke-linejoin="miter" fill="none" stroke="#f2f3f4" d="M85.24039 144.9022C85.24039 144.6758 85.23914 144.469 85.23664 144.2816 85.23414 144.0943 85.22788 143.9577 85.21787 143.8718 85.1428 143.8718 85.05021 143.8757 84.94011 143.8835 84.83001 143.8913 84.7124 143.9011 84.58728 143.9128 84.46216 143.9245 84.33454 143.9401 84.20442 143.9596 84.0743 143.9791 83.95419 144.0006 83.84408 144.024 83.85409 143.9381 83.86285 143.8523 83.87036 143.7664 83.87787 143.6805 83.88162 143.5947 83.88162 143.5088 83.88162 143.4229 83.87787 143.337 83.87036 143.2512 83.86285 143.1653 83.85409 143.0794 83.84408 142.9936 84.01424 143.0014 84.16814 143.0092 84.30577 143.017 84.4434 143.0248 84.58353 143.0306 84.72616 143.0345 84.86879 143.0384 85.02394 143.0424 85.1916 143.0463 85.35925 143.0502 85.56069 143.0521 85.79591 143.0521 86.03113 143.0521 86.23257 143.0502 86.40023 143.0463 86.56788 143.0424 86.72178 143.0384 86.86191 143.0345 87.00204 143.0306 87.13842 143.0248 87.27104 143.017 87.40367 143.0092 87.54755 143.0014 87.7027 142.9936 87.69269 143.0794 87.68393 143.1653 87.67642 143.2512 87.66892 143.337 87.66516 143.4229 87.66516 143.5088 87.66516 143.5947 87.66892 143.6805 87.67642 143.7664 87.68393 143.8523 87.69269 143.9381 87.7027 144.024 87.6026 144.0006 87.49 143.9791 87.36488 143.9596 87.23976 143.9401 87.1159 143.9245 86.99328 143.9128 86.87067 143.9011 86.75431 143.8913 86.64421 143.8835 86.5341 143.8757 86.44152 143.8718 86.36645 143.8718 86.36144 143.9108 86.35769 143.9655 86.35519 144.0357 86.35268 144.106 86.35143 144.1879 86.35143 144.2816V144.9022 147.8296C86.35143 148.4776 86.35644 149.0533 86.36645 149.5568 86.37646 150.0603 86.39147 150.5541 86.41149 151.0381 86.32641 151.0224 86.23382 151.0146 86.13373 151.0146 86.03363 151.0146 85.92103 151.0146 85.79591 151.0146 85.67079 151.0146 85.55819 151.0146 85.4581 151.0146 85.358 151.0146 85.26541 151.0224 85.18034 151.0381 85.20035 150.5541 85.21537 150.0603 85.22538 149.5568 85.23539 149.0533 85.24039 148.4776 85.24039 147.8296V144.9022Z"/>
</g>
</g>
</g>
</g>
<path transform="matrix(1,0,0,-1,0,170.1)" d="M93.49284 24.90503C93.36272 24.43665 93.2401 23.97412 93.12499 23.51745 93.00989 23.06077 92.89728 22.59434 92.78718 22.11815H94.16097C94.05086 22.59434 93.94201 23.06077 93.83441 23.51745 93.72681 23.97412 93.61295 24.43665 93.49284 24.90503ZM96.15033 19.06194C96.03022 19.07756 95.91636 19.08536 95.80876 19.08536 95.70116 19.08536 95.59481 19.08536 95.48971 19.08536 95.38461 19.08536 95.27826 19.08536 95.17066 19.08536 95.06306 19.08536 94.95671 19.07756 94.85161 19.06194 94.77154 19.44446 94.68896 19.83478 94.60388 20.2329 94.5188 20.63103 94.42872 21.02916 94.33363 21.42728 94.17348 21.43509 94.01333 21.44094 93.85318 21.44485 93.69303 21.44875 93.53288 21.4507 93.37273 21.4507 93.2426 21.4507 93.11248 21.44875 92.98236 21.44485 92.85224 21.44094 92.72212 21.43509 92.592 21.42728 92.4919 21.02916 92.39932 20.63103 92.31424 20.2329 92.22916 19.83478 92.15158 19.44446 92.08152 19.06194 92.02146 19.07756 91.96266 19.08536 91.9051 19.08536 91.84755 19.08536 91.78874 19.08536 91.72869 19.08536 91.66863 19.08536 91.60857 19.08536 91.54852 19.08536 91.48846 19.08536 91.4234 19.07756 91.35334 19.06194 91.41339 19.26491 91.49347 19.54594 91.59356 19.90504 91.69365 20.26413 91.80376 20.67006 91.92387 21.12283 92.04398 21.5756 92.17285 22.06155 92.31048 22.58068 92.44811 23.0998 92.58574 23.62478 92.72337 24.15562 92.861 24.68645 92.99612 25.20948 93.12875 25.7247 93.26137 26.23993 93.38274 26.72002 93.49284 27.16499 93.54289 27.14937 93.59043 27.13571 93.63547 27.124 93.68052 27.11229 93.72806 27.10644 93.77811 27.10644 93.82815 27.10644 93.8757 27.11229 93.92074 27.124 93.96578 27.13571 94.01333 27.14937 94.06337 27.16499 94.22352 26.50144 94.39493 25.79106 94.57761 25.03384 94.76028 24.27662 94.9442 23.53306 95.12937 22.80316 95.31455 22.07326 95.49471 21.38044 95.66988 20.72471 95.84504 20.06897 96.00519 19.51472 96.15033 19.06194Z" fill="#83b7ee"/>
</g>
<g clip-path="url(#clip_54)">
<g>
<g clip-path="url(#clip_55)">
<g clip-path="url(#clip_56)">
<g clip-path="url(#clip_57)">
<path stroke-width="1.832751" stroke-linecap="butt" stroke-miterlimit="10" stroke-linejoin="miter" fill="none" stroke="#f2f3f4" d="M93.49284 145.195C93.36272 145.6634 93.2401 146.1259 93.12499 146.5826 93.00989 147.0392 92.89728 147.5057 92.78718 147.9819H94.16097C94.05086 147.5057 93.94201 147.0392 93.83441 146.5826 93.72681 146.1259 93.61295 145.6634 93.49284 145.195ZM96.15033 151.0381C96.03022 151.0224 95.91636 151.0146 95.80876 151.0146 95.70116 151.0146 95.59481 151.0146 95.48971 151.0146 95.38461 151.0146 95.27826 151.0146 95.17066 151.0146 95.06306 151.0146 94.95671 151.0224 94.85161 151.0381 94.77154 150.6555 94.68896 150.2652 94.60388 149.8671 94.5188 149.469 94.42872 149.0708 94.33363 148.6727 94.17348 148.6649 94.01333 148.6591 93.85318 148.6552 93.69303 148.6512 93.53288 148.6493 93.37273 148.6493 93.2426 148.6493 93.11248 148.6512 92.98236 148.6552 92.85224 148.6591 92.72212 148.6649 92.592 148.6727 92.4919 149.0708 92.39932 149.469 92.31424 149.8671 92.22916 150.2652 92.15158 150.6555 92.08152 151.0381 92.02146 151.0224 91.96266 151.0146 91.9051 151.0146 91.84755 151.0146 91.78874 151.0146 91.72869 151.0146 91.66863 151.0146 91.60857 151.0146 91.54852 151.0146 91.48846 151.0146 91.4234 151.0224 91.35334 151.0381 91.41339 150.8351 91.49347 150.5541 91.59356 150.195 91.69365 149.8359 91.80376 149.4299 91.92387 148.9772 92.04398 148.5244 92.17285 148.0384 92.31048 147.5193 92.44811 147.0002 92.58574 146.4752 92.72337 145.9444 92.861 145.4135 92.99612 144.8905 93.12875 144.3753 93.26137 143.8601 93.38274 143.38 93.49284 142.935 93.54289 142.9506 93.59043 142.9643 93.63547 142.976 93.68052 142.9877 93.72806 142.9936 93.77811 142.9936 93.82815 142.9936 93.8757 142.9877 93.92074 142.976 93.96578 142.9643 94.01333 142.9506 94.06337 142.935 94.22352 143.5986 94.39493 144.3089 94.57761 145.0662 94.76028 145.8234 94.9442 146.5669 95.12937 147.2968 95.31455 148.0267 95.49471 148.7196 95.66988 149.3753 95.84504 150.031 96.00519 150.5853 96.15033 151.0381Z"/>
</g>
</g>
</g>
</g>
<path transform="matrix(1,0,0,-1,0,170.1)" d="M100.9345 24.77623C100.9345 25.31487 100.9295 25.76764 100.9195 26.13454 100.9095 26.50144 100.902 26.82541 100.897 27.10644 101.0371 27.06741 101.1497 27.04789 101.2348 27.04789 101.3199 27.04789 101.4325 27.06741 101.5726 27.10644 102.1181 26.16186 102.6574 25.2329 103.1904 24.31955 103.7234 23.4062 104.2702 22.47724 104.8307 21.53267V22.5514 23.68723C104.8307 24.06975 104.8294 24.44641 104.8269 24.81721 104.8244 25.18802 104.8219 25.52954 104.8194 25.8418 104.8169 26.15406 104.8119 26.42338 104.8044 26.64976 104.7969 26.87615 104.7881 27.02837 104.7781 27.10644 104.9183 27.06741 105.0309 27.04789 105.1159 27.04789 105.201 27.04789 105.3136 27.06741 105.4538 27.10644 105.4287 26.39606 105.4087 25.75398 105.3937 25.18021 105.3787 24.60644 105.3662 24.06585 105.3562 23.55843 105.3462 23.05101 105.3399 22.54945 105.3374 22.05375 105.3349 21.55804 105.3336 21.02916 105.3336 20.4671V19.06194C105.2336 19.07756 105.131 19.08536 105.0259 19.08536 104.9158 19.08536 104.8182 19.07756 104.7331 19.06194 103.7021 20.93548 102.6086 22.82072 101.4525 24.71768 101.4475 24.49129 101.4438 24.26491 101.4413 24.03852 101.4387 23.81214 101.4375 23.58185 101.4375 23.34766V21.98934C101.4375 21.52096 101.4387 21.12283 101.4413 20.79496 101.4438 20.4671 101.4475 20.18997 101.4525 19.96358 101.4575 19.7372 101.4625 19.5518 101.4675 19.40738 101.4725 19.26296 101.4775 19.14781 101.4825 19.06194 101.4225 19.07756 101.3624 19.08536 101.3024 19.08536 101.2423 19.08536 101.1848 19.08536 101.1297 19.08536 101.0146 19.08536 100.8995 19.07756 100.7844 19.06194 100.7944 19.1244 100.8069 19.34688 100.8219 19.72939 100.8369 20.1119 100.8532 20.57834 100.8707 21.12869 100.8882 21.67904 100.9032 22.27623 100.9158 22.92026 100.9283 23.56428 100.9345 24.18294 100.9345 24.77623Z" fill="#83b7ee"/>
</g>
<g clip-path="url(#clip_58)">
<g>
<g clip-path="url(#clip_59)">
<g clip-path="url(#clip_60)">
<g clip-path="url(#clip_61)">
<path stroke-width="1.832751" stroke-linecap="butt" stroke-miterlimit="10" stroke-linejoin="miter" fill="none" stroke="#f2f3f4" d="M100.9345 145.3238C100.9345 144.7851 100.9295 144.3324 100.9195 143.9655 100.9095 143.5986 100.902 143.2746 100.897 142.9936 101.0371 143.0326 101.1497 143.0521 101.2348 143.0521 101.3199 143.0521 101.4325 143.0326 101.5726 142.9936 102.1181 143.9381 102.6574 144.8671 103.1904 145.7804 103.7234 146.6938 104.2702 147.6228 104.8307 148.5673V147.5486 146.4128C104.8307 146.0303 104.8294 145.6536 104.8269 145.2828 104.8244 144.912 104.8219 144.5705 104.8194 144.2582 104.8169 143.9459 104.8119 143.6766 104.8044 143.4502 104.7969 143.2239 104.7881 143.0716 104.7781 142.9936 104.9183 143.0326 105.0309 143.0521 105.1159 143.0521 105.201 143.0521 105.3136 143.0326 105.4538 142.9936 105.4287 143.7039 105.4087 144.346 105.3937 144.9198 105.3787 145.4936 105.3662 146.0342 105.3562 146.5416 105.3462 147.049 105.3399 147.5505 105.3374 148.0463 105.3349 148.542 105.3336 149.0708 105.3336 149.6329V151.0381C105.2336 151.0224 105.131 151.0146 105.0259 151.0146 104.9158 151.0146 104.8182 151.0224 104.7331 151.0381 103.7021 149.1645 102.6086 147.2793 101.4525 145.3823 101.4475 145.6087 101.4438 145.8351 101.4413 146.0615 101.4387 146.2879 101.4375 146.5182 101.4375 146.7523V148.1107C101.4375 148.579 101.4387 148.9772 101.4413 149.305 101.4438 149.6329 101.4475 149.91 101.4525 150.1364 101.4575 150.3628 101.4625 150.5482 101.4675 150.6926 101.4725 150.837 101.4775 150.9522 101.4825 151.0381 101.4225 151.0224 101.3624 151.0146 101.3024 151.0146 101.2423 151.0146 101.1848 151.0146 101.1297 151.0146 101.0146 151.0146 100.8995 151.0224 100.7844 151.0381 100.7944 150.9756 100.8069 150.7531 100.8219 150.3706 100.8369 149.9881 100.8532 149.5217 100.8707 148.9713 100.8882 148.421 100.9032 147.8238 100.9158 147.1797 100.9283 146.5357 100.9345 145.9171 100.9345 145.3238Z"/>
</g>
</g>
</g>
</g>
<path transform="matrix(1,0,0,-1,0,170.1)" d="M112.8654 25.52564C112.7053 26.19699 112.4025 26.53267 111.9571 26.53267 111.7269 26.53267 111.5392 26.42728 111.394 26.21651 111.2489 26.00574 111.1763 25.75983 111.1763 25.4788 111.1763 25.18997 111.2326 24.95382 111.3452 24.77037 111.4579 24.58692 111.5992 24.42104 111.7694 24.27271 111.9396 24.12439 112.1222 23.98193 112.3174 23.84531 112.5126 23.7087 112.6953 23.54087 112.8654 23.3418 113.0356 23.14274 113.177 22.90074 113.2896 22.61581 113.4022 22.33087 113.4585 21.96592 113.4585 21.52096 113.4585 21.13064 113.4109 20.7735 113.3158 20.44953 113.2208 20.12557 113.0856 19.84844 112.9105 19.61815 112.7353 19.38786 112.5264 19.21222 112.2836 19.09122 112.0409 18.97022 111.7694 18.90972 111.4691 18.90972 111.1989 18.90972 110.9574 18.95461 110.7447 19.04438 110.532 19.13415 110.3706 19.24539 110.2605 19.3781 110.3105 19.65133 110.3531 19.90113 110.3881 20.12752 110.4231 20.3539 110.4532 20.5998 110.4782 20.86522H110.6208C110.6408 20.69348 110.6784 20.5315 110.7334 20.37927 110.7885 20.22705 110.8585 20.09239 110.9436 19.97529 111.0287 19.8582 111.1313 19.76647 111.2514 19.70012 111.3715 19.63376 111.5066 19.60059 111.6568 19.60059 111.9571 19.60059 112.1785 19.71768 112.3212 19.95187 112.4638 20.18607 112.5351 20.4671 112.5351 20.79496 112.5351 21.09161 112.4801 21.33361 112.37 21.52096 112.2599 21.70831 112.1222 21.8742 111.9571 22.01862 111.7919 22.16304 111.6117 22.30355 111.4166 22.44016 111.2214 22.57677 111.0412 22.74266 110.8761 22.93782 110.7109 23.13298 110.5733 23.37303 110.4632 23.65796 110.3531 23.94289 110.298 24.30784 110.298 24.75281 110.298 25.15874 110.3443 25.51784 110.4369 25.83009 110.5295 26.14235 110.6533 26.40386 110.8085 26.61463 110.9636 26.82541 111.1426 26.98544 111.3452 27.09473 111.5479 27.20402 111.7619 27.25866 111.9871 27.25866 112.2574 27.25866 112.4938 27.20792 112.6965 27.10644 112.8992 27.00495 113.0731 26.86444 113.2183 26.68489 113.1732 26.50534 113.1344 26.33165 113.1019 26.16381 113.0694 25.99598 113.0281 25.78325 112.978 25.52564H112.8654Z" fill="#83b7ee"/>
</g>
<g clip-path="url(#clip_62)">
<g>
<g clip-path="url(#clip_63)">
<g clip-path="url(#clip_64)">
<g clip-path="url(#clip_65)">
<path stroke-width="1.832751" stroke-linecap="butt" stroke-miterlimit="10" stroke-linejoin="miter" fill="none" stroke="#f2f3f4" d="M112.8654 144.5744C112.7053 143.903 112.4025 143.5673 111.9571 143.5673 111.7269 143.5673 111.5392 143.6727 111.394 143.8835 111.2489 144.0943 111.1763 144.3402 111.1763 144.6212 111.1763 144.91 111.2326 145.1462 111.3452 145.3296 111.4579 145.5131 111.5992 145.679 111.7694 145.8273 111.9396 145.9756 112.1222 146.1181 112.3174 146.2547 112.5126 146.3913 112.6953 146.5591 112.8654 146.7582 113.0356 146.9573 113.177 147.1993 113.2896 147.4842 113.4022 147.7691 113.4585 148.1341 113.4585 148.579 113.4585 148.9694 113.4109 149.3265 113.3158 149.6505 113.2208 149.9744 113.0856 150.2516 112.9105 150.4819 112.7353 150.7121 112.5264 150.8878 112.2836 151.0088 112.0409 151.1298 111.7694 151.1903 111.4691 151.1903 111.1989 151.1903 110.9574 151.1454 110.7447 151.0556 110.532 150.9658 110.3706 150.8546 110.2605 150.7219 110.3105 150.4487 110.3531 150.1989 110.3881 149.9725 110.4231 149.7461 110.4532 149.5002 110.4782 149.2348H110.6208C110.6408 149.4065 110.6784 149.5685 110.7334 149.7207 110.7885 149.873 110.8585 150.0076 110.9436 150.1247 111.0287 150.2418 111.1313 150.3335 111.2514 150.3999 111.3715 150.4662 111.5066 150.4994 111.6568 150.4994 111.9571 150.4994 112.1785 150.3823 112.3212 150.1481 112.4638 149.9139 112.5351 149.6329 112.5351 149.305 112.5351 149.0084 112.4801 148.7664 112.37 148.579 112.2599 148.3917 112.1222 148.2258 111.9571 148.0814 111.7919 147.937 111.6117 147.7964 111.4166 147.6598 111.2214 147.5232 111.0412 147.3573 110.8761 147.1622 110.7109 146.967 110.5733 146.727 110.4632 146.442 110.3531 146.1571 110.298 145.7922 110.298 145.3472 110.298 144.9413 110.3443 144.5822 110.4369 144.2699 110.5295 143.9577 110.6533 143.6961 110.8085 143.4854 110.9636 143.2746 111.1426 143.1146 111.3452 143.0053 111.5479 142.896 111.7619 142.8413 111.9871 142.8413 112.2574 142.8413 112.4938 142.8921 112.6965 142.9936 112.8992 143.095 113.0731 143.2356 113.2183 143.4151 113.1732 143.5947 113.1344 143.7683 113.1019 143.9362 113.0694 144.104 113.0281 144.3167 112.978 144.5744H112.8654Z"/>
</g>
</g>
</g>
</g>
</g>
</g>
</g>
</g>
</svg>
