<svg xmlns="http://www.w3.org/2000/svg" xmlns:xlink="http://www.w3.org/1999/xlink" version="1.1" width="141.75pt" height="170.1pt" viewBox="0 0 141.75 170.1">
<defs>
<clipPath id="clip_0">
<path transform="matrix(1,0,0,-1,0,170.1)" d="M21 35H121V135H21Z"/>
</clipPath>
<clipPath id="clip_1">
<path transform="matrix(1,0,0,-1,0,170.1)" d="M0 0H141.75V170.1H0Z"/>
</clipPath>
<clipPath id="clip_2">
<path transform="matrix(1,0,0,-1,0,170.1)" d="M0 0H141.75V170.1H0Z"/>
</clipPath>
<clipPath id="clip_3">
<path transform="matrix(1,0,0,-1,0,170.1)" d="M48 44H93V100H48Z"/>
</clipPath>
<clipPath id="clip_4">
<path transform="matrix(1,0,0,-1,0,170.1)" d="M64.40427 86.12295C64.40427 87.66716 64.38975 89.07825 64.3607 90.35621 64.33165 91.63418 64.25904 92.56603 64.14285 93.15176 63.27143 93.15176 62.19668 93.12514 60.9186 93.07189 59.64051 93.01864 58.27529 92.95208 56.82292 92.87221 55.37056 92.79234 53.88915 92.68584 52.37868 92.55272 50.86822 92.4196 49.47395 92.27316 48.19587 92.11342 48.31206 92.69915 48.41373 93.28489 48.50087 93.87062 48.58801 94.45635 48.63158 95.04209 48.63158 95.62782 48.63158 96.21356 48.58801 96.79929 48.50087 97.38503 48.41373 97.97076 48.31206 98.5565 48.19587 99.14223 50.17109 99.08898 51.9575 99.03573 53.5551 98.98249 55.1527 98.92924 56.77935 98.8893 58.43505 98.86268 60.09075 98.83605 61.89168 98.80943 63.83785 98.7828 65.78402 98.75618 68.12233 98.74287 70.85278 98.74287 73.58322 98.74287 75.92153 98.75618 77.8677 98.7828 79.81387 98.80943 81.60028 98.83605 83.22693 98.86268 84.85358 98.8893 86.43666 98.92924 87.97617 98.98249 89.51568 99.03573 91.1859 99.08898 92.98683 99.14223 92.87064 98.5565 92.76897 97.97076 92.68183 97.38503 92.59469 96.79929 92.55112 96.21356 92.55112 95.62782 92.55112 95.04209 92.59469 94.45635 92.68183 93.87062 92.76897 93.28489 92.87064 92.69915 92.98683 92.11342 91.82494 92.27316 90.51781 92.4196 89.06544 92.55272 87.61308 92.68584 86.17523 92.79234 84.75192 92.87221 83.3286 92.95208 81.9779 93.01864 80.69982 93.07189 79.42173 93.12514 78.34698 93.15176 77.47556 93.15176 77.41747 92.88552 77.3739 92.51278 77.34485 92.03354 77.3158 91.55431 77.30128 90.9952 77.30128 90.35621V86.12295 66.15473C77.30128 61.73509 77.35937 57.80801 77.47556 54.37348 77.59175 50.93894 77.76604 47.57097 77.99842 44.26956 77.01081 44.37605 75.93606 44.4293 74.77416 44.4293 73.61227 44.4293 72.30514 44.4293 70.85278 44.4293 69.40041 44.4293 68.09328 44.4293 66.93139 44.4293 65.7695 44.4293 64.69475 44.37605 63.70714 44.26956 63.93952 47.57097 64.1138 50.93894 64.22999 54.37348 64.34618 57.80801 64.40427 61.73509 64.40427 66.15473V86.12295Z" fill-rule="evenodd"/>
</clipPath>
<clipPath id="clip_5">
<path transform="matrix(1,0,0,-1,0,170.1)" d="M0 0H142V171H0Z"/>
</clipPath>
<clipPath id="clip_6">
<path transform="matrix(1,0,0,-1,0,170.1)" d="M0 0H141.75V170.1H0Z"/>
</clipPath>
<clipPath id="clip_7">
<path transform="matrix(1,0,0,-1,0,170.1)" d="M37 99H105V117H37Z"/>
</clipPath>
<clipPath id="clip_8">
<path transform="matrix(1,0,0,-1,0,170.1)" d="M37.77199 116.4602C37.94403 115.6371 38.10252 114.8164 38.23154 113.9932 38.36052 113.1701 38.43578 112.3494 38.43578 111.5263 38.4358 110.7032 38.36055 109.8825 38.23154 109.0593 38.10255 108.2362 37.94401 107.4155 37.77199 106.5924 39.66424 106.8169 41.71405 106.9974 43.95036 107.1845 46.18671 107.3716 48.38693 107.5656 50.53723 107.6779 52.68752 107.7901 54.72122 107.8497 56.61348 107.9246 58.50573 107.9994 60.07197 108.0232 61.36215 108.0232 61.53422 107.2001 61.67657 105.9213 61.71957 104.1255 61.75472 102.6561 61.76425 100.9608 61.77064 99.24091 62.35162 99.23303 62.84913 99.19944 63.45565 99.19157 65.60558 99.16365 68.20057 99.14224 71.21691 99.14223 74.23324 99.14223 76.8282 99.16366 78.97818 99.19157 79.66405 99.20048 80.21748 99.232 80.86743 99.24091V104.1255C80.86752 105.0234 80.87549 105.8203 80.91849 106.4937 80.96146 107.1672 81.03673 107.6491 81.12274 108.0232 82.41289 108.0232 83.97914 107.9994 85.87141 107.9246 87.76371 107.8497 89.78931 107.7901 91.8966 107.6779 94.00388 107.5656 96.12892 107.3715 98.27922 107.1845 100.4296 106.9974 102.3799 106.8169 104.1002 106.5924 103.9282 107.4155 103.7696 108.2362 103.6406 109.0593 103.5115 109.8825 103.4364 110.7032 103.4364 111.5263 103.4365 112.3494 103.5116 113.1701 103.6406 113.9932 103.7696 114.8163 103.9281 115.6371 104.1002 116.4602 101.4338 116.3853 98.92458 116.3377 96.64527 116.2628 94.366 116.188 92.05825 116.1029 89.64992 116.0655 87.24159 116.0281 84.56581 116.0042 81.68441 115.9668 78.80299 115.9294 75.3616 115.9175 71.31903 115.9175 67.27647 115.9175 63.83506 115.9294 60.95366 115.9668 58.07223 116.0042 55.38843 116.0281 52.93709 116.0655 50.48572 116.1029 48.05176 116.188 45.68644 116.2628 43.3211 116.3377 40.69639 116.3854 37.77199 116.4602Z" fill-rule="evenodd"/>
</clipPath>
<clipPath id="clip_9">
<path transform="matrix(1,0,0,-1,0,170.1)" d="M0 0H142V171H0Z"/>
</clipPath>
<clipPath id="clip_10">
<path transform="matrix(1,0,0,-1,0,170.1)" d="M0 0H141.75V170.1H0Z"/>
</clipPath>
<clipPath id="clip_11">
<path transform="matrix(1,0,0,-1,0,170.1)" d="M60 40H82V89H60Z"/>
</clipPath>
<clipPath id="clip_12">
<path transform="matrix(1,0,0,-1,0,170.1)" d="M63.38674 88.2367C62.83353 88.2367 62.03323 88.20922 61.3325 88.1931V67.7467C61.33252 62.2589 61.24874 57.36318 61.07572 53.09854 60.90268 48.83396 60.65142 44.64231 60.30538 40.54297 61.77608 40.67517 63.35131 40.76095 65.08149 40.76095 66.81165 40.76095 68.77335 40.76095 70.93608 40.76095 73.09881 40.76095 75.06048 40.76095 76.79066 40.76095 78.52082 40.76097 80.09612 40.6752 81.56677 40.54297 81.22075 44.64232 80.96945 48.8339 80.79643 53.09854 80.62337 57.36315 80.53965 62.25887 80.53965 67.7467V88.1931C79.7085 88.2144 78.81334 88.2367 78.17727 88.2367 78.11273 87.99003 78.05548 87.63443 78.02321 87.1904 77.99093 86.7464 78.02324 86.21295 78.02321 85.62095V81.69734 63.21275C78.02321 59.11804 78.04812 55.49584 78.17727 52.31381 78.30637 49.13179 78.53538 45.99944 78.79355 42.94073 77.69623 43.0394 76.48955 43.07152 75.19863 43.07152 73.90767 43.07152 72.44712 43.07152 70.83336 43.07152 69.21966 43.07152 67.75909 43.07152 66.4681 43.07152 65.17714 43.07152 63.97051 43.03945 62.87318 42.94073 63.13138 45.99943 63.36037 49.13179 63.48946 52.31381 63.61855 55.49584 63.64346 59.11804 63.64352 63.21275V81.69734C63.64352 83.12802 63.67589 84.4369 63.64352 85.62095 63.61125 86.80497 63.51576 87.69402 63.38674 88.2367Z" fill-rule="evenodd"/>
</clipPath>
<clipPath id="clip_13">
<path transform="matrix(1,0,0,-1,0,170.1)" d="M0 0H142V171H0Z"/>
</clipPath>
<clipPath id="clip_14">
<path transform="matrix(1,0,0,-1,0,170.1)" d="M0 0H141.75V170.1H0Z"/>
</clipPath>
<clipPath id="clip_15">
<path transform="matrix(1,0,0,-1,0,170.1)" d="M21 35H121V135H21Z"/>
</clipPath>
<clipPath id="clip_16">
<path transform="matrix(1,0,0,-1,0,170.1)" d="M21.61599 85.05C21.61599 112.3979 43.67 134.5677 70.875 134.5677 98.08 134.5677 120.134 112.3979 120.134 85.05 120.134 57.70215 98.08 35.53233 70.875 35.53233 43.67 35.53233 21.61599 57.70215 21.61599 85.05Z" fill-rule="evenodd"/>
</clipPath>
<clipPath id="clip_17">
<path transform="matrix(1,0,0,-1,0,170.1)" d="M0 0H142V171H0Z"/>
</clipPath>
</defs>
<g>
<g>
<g clip-path="url(#clip_0)">
<g clip-path="url(#clip_1)">
<path transform="matrix(1,0,0,-1,0,170.1)" d="M64.40427 86.12295C64.40427 87.66716 64.38975 89.07825 64.3607 90.35621 64.33165 91.63418 64.25904 92.56603 64.14285 93.15176 63.27143 93.15176 62.19668 93.12514 60.9186 93.07189 59.64051 93.01864 58.27529 92.95208 56.82292 92.87221 55.37056 92.79234 53.88915 92.68584 52.37868 92.55272 50.86822 92.4196 49.47395 92.27316 48.19587 92.11342 48.31206 92.69915 48.41373 93.28489 48.50087 93.87062 48.58801 94.45635 48.63158 95.04209 48.63158 95.62782 48.63158 96.21356 48.58801 96.79929 48.50087 97.38503 48.41373 97.97076 48.31206 98.5565 48.19587 99.14223 50.17109 99.08898 51.9575 99.03573 53.5551 98.98249 55.1527 98.92924 56.77935 98.8893 58.43505 98.86268 60.09075 98.83605 61.89168 98.80943 63.83785 98.7828 65.78402 98.75618 68.12233 98.74287 70.85278 98.74287 73.58322 98.74287 75.92153 98.75618 77.8677 98.7828 79.81387 98.80943 81.60028 98.83605 83.22693 98.86268 84.85358 98.8893 86.43666 98.92924 87.97617 98.98249 89.51568 99.03573 91.1859 99.08898 92.98683 99.14223 92.87064 98.5565 92.76897 97.97076 92.68183 97.38503 92.59469 96.79929 92.55112 96.21356 92.55112 95.62782 92.55112 95.04209 92.59469 94.45635 92.68183 93.87062 92.76897 93.28489 92.87064 92.69915 92.98683 92.11342 91.82494 92.27316 90.51781 92.4196 89.06544 92.55272 87.61308 92.68584 86.17523 92.79234 84.75192 92.87221 83.3286 92.95208 81.9779 93.01864 80.69982 93.07189 79.42173 93.12514 78.34698 93.15176 77.47556 93.15176 77.41747 92.88552 77.3739 92.51278 77.34485 92.03354 77.3158 91.55431 77.30128 90.9952 77.30128 90.35621V86.12295 66.15473C77.30128 61.73509 77.35937 57.80801 77.47556 54.37348 77.59175 50.93894 77.76604 47.57097 77.99842 44.26956 77.01081 44.37605 75.93606 44.4293 74.77416 44.4293 73.61227 44.4293 72.30514 44.4293 70.85278 44.4293 69.40041 44.4293 68.09328 44.4293 66.93139 44.4293 65.7695 44.4293 64.69475 44.37605 63.70714 44.26956 63.93952 47.57097 64.1138 50.93894 64.22999 54.37348 64.34618 57.80801 64.40427 61.73509 64.40427 66.15473V86.12295Z" fill="#f2f3f4"/>
</g>
<g clip-path="url(#clip_2)">
<g>
<g clip-path="url(#clip_3)">
<g clip-path="url(#clip_4)">
<g clip-path="url(#clip_5)">
<path stroke-width="1.832751" stroke-linecap="butt" stroke-miterlimit="10" stroke-linejoin="miter" fill="none" stroke="#f2f3f4" d="M64.40427 83.97705C64.40427 82.43284 64.38975 81.02175 64.3607 79.74379 64.33165 78.46582 64.25904 77.53397 64.14285 76.94824 63.27143 76.94824 62.19668 76.97486 60.9186 77.02811 59.64051 77.08136 58.27529 77.14792 56.82292 77.22779 55.37056 77.30766 53.88915 77.41416 52.37868 77.54728 50.86822 77.6804 49.47395 77.82684 48.19587 77.98658 48.31206 77.40085 48.41373 76.81511 48.50087 76.22938 48.58801 75.64365 48.63158 75.05791 48.63158 74.47218 48.63158 73.88644 48.58801 73.30071 48.50087 72.71497 48.41373 72.12924 48.31206 71.5435 48.19587 70.95777 50.17109 71.01102 51.9575 71.06427 53.5551 71.11751 55.1527 71.17076 56.77935 71.2107 58.43505 71.23732 60.09075 71.26395 61.89168 71.29057 63.83785 71.3172 65.78402 71.34382 68.12233 71.35713 70.85278 71.35713 73.58322 71.35713 75.92153 71.34382 77.8677 71.3172 79.81387 71.29057 81.60028 71.26395 83.22693 71.23732 84.85358 71.2107 86.43666 71.17076 87.97617 71.11751 89.51568 71.06427 91.1859 71.01102 92.98683 70.95777 92.87064 71.5435 92.76897 72.12924 92.68183 72.71497 92.59469 73.30071 92.55112 73.88644 92.55112 74.47218 92.55112 75.05791 92.59469 75.64365 92.68183 76.22938 92.76897 76.81511 92.87064 77.40085 92.98683 77.98658 91.82494 77.82684 90.51781 77.6804 89.06544 77.54728 87.61308 77.41416 86.17523 77.30766 84.75192 77.22779 83.3286 77.14792 81.9779 77.08136 80.69982 77.02811 79.42173 76.97486 78.34698 76.94824 77.47556 76.94824 77.41747 77.21448 77.3739 77.58722 77.34485 78.06646 77.3158 78.54569 77.30128 79.1048 77.30128 79.74379V83.97705 103.9453C77.30128 108.3649 77.35937 112.292 77.47556 115.7265 77.59175 119.1611 77.76604 122.529 77.99842 125.8304 77.01081 125.7239 75.93606 125.6707 74.77416 125.6707 73.61227 125.6707 72.30514 125.6707 70.85278 125.6707 69.40041 125.6707 68.09328 125.6707 66.93139 125.6707 65.7695 125.6707 64.69475 125.7239 63.70714 125.8304 63.93952 122.529 64.1138 119.1611 64.22999 115.7265 64.34618 112.292 64.40427 108.3649 64.40427 103.9453V83.97705Z"/>
</g>
</g>
</g>
</g>
<path transform="matrix(1,0,0,-1,0,170.1)" d="M37.77199 116.4602C37.94403 115.6371 38.10252 114.8164 38.23154 113.9932 38.36052 113.1701 38.43578 112.3494 38.43578 111.5263 38.4358 110.7032 38.36055 109.8825 38.23154 109.0593 38.10255 108.2362 37.94401 107.4155 37.77199 106.5924 39.66424 106.8169 41.71405 106.9974 43.95036 107.1845 46.18671 107.3716 48.38693 107.5656 50.53723 107.6779 52.68752 107.7901 54.72122 107.8497 56.61348 107.9246 58.50573 107.9994 60.07197 108.0232 61.36215 108.0232 61.53422 107.2001 61.67657 105.9213 61.71957 104.1255 61.75472 102.6561 61.76425 100.9608 61.77064 99.24091 62.35162 99.23303 62.84913 99.19944 63.45565 99.19157 65.60558 99.16365 68.20057 99.14224 71.21691 99.14223 74.23324 99.14223 76.8282 99.16366 78.97818 99.19157 79.66405 99.20048 80.21748 99.232 80.86743 99.24091V104.1255C80.86752 105.0234 80.87549 105.8203 80.91849 106.4937 80.96146 107.1672 81.03673 107.6491 81.12274 108.0232 82.41289 108.0232 83.97914 107.9994 85.87141 107.9246 87.76371 107.8497 89.78931 107.7901 91.8966 107.6779 94.00388 107.5656 96.12892 107.3715 98.27922 107.1845 100.4296 106.9974 102.3799 106.8169 104.1002 106.5924 103.9282 107.4155 103.7696 108.2362 103.6406 109.0593 103.5115 109.8825 103.4364 110.7032 103.4364 111.5263 103.4365 112.3494 103.5116 113.1701 103.6406 113.9932 103.7696 114.8163 103.9281 115.6371 104.1002 116.4602 101.4338 116.3853 98.92458 116.3377 96.64527 116.2628 94.366 116.188 92.05825 116.1029 89.64992 116.0655 87.24159 116.0281 84.56581 116.0042 81.68441 115.9668 78.80299 115.9294 75.3616 115.9175 71.31903 115.9175 67.27647 115.9175 63.83506 115.9294 60.95366 115.9668 58.07223 116.0042 55.38843 116.0281 52.93709 116.0655 50.48572 116.1029 48.05176 116.188 45.68644 116.2628 43.3211 116.3377 40.69639 116.3854 37.77199 116.4602Z" fill="#f2f3f4"/>
</g>
<g clip-path="url(#clip_6)">
<g>
<g clip-path="url(#clip_7)">
<g clip-path="url(#clip_8)">
<g clip-path="url(#clip_9)">
<path stroke-width="1.832751" stroke-linecap="butt" stroke-miterlimit="10" stroke-linejoin="miter" fill="none" stroke="#f2f3f4" d="M37.77199 53.63982C37.94403 54.46293 38.10252 55.28365 38.23154 56.10676 38.36052 56.92987 38.43578 57.75059 38.43578 58.57371 38.4358 59.39683 38.36055 60.21754 38.23154 61.04065 38.10255 61.86376 37.94401 62.68448 37.77199 63.5076 39.66424 63.28309 41.71405 63.1026 43.95036 62.91553 46.18671 62.72845 48.38693 62.53438 50.53723 62.42214 52.68752 62.30989 54.72122 62.25028 56.61348 62.17545 58.50573 62.10064 60.07197 62.07677 61.36215 62.07677 61.53422 62.89988 61.67657 64.17865 61.71957 65.97454 61.75472 67.44393 61.76425 69.13924 61.77064 70.85909 62.35162 70.86697 62.84913 70.90056 63.45565 70.90843 65.60558 70.93635 68.20057 70.95776 71.21691 70.95777 74.23324 70.95777 76.8282 70.93634 78.97818 70.90843 79.66405 70.89952 80.21748 70.868 80.86743 70.85909V65.97454C80.86752 65.07657 80.87549 64.27973 80.91849 63.60627 80.96146 62.93284 81.03673 62.45091 81.12274 62.07677 82.41289 62.07676 83.97914 62.10062 85.87141 62.17545 87.76371 62.25028 89.78931 62.3099 91.8966 62.42214 94.00388 62.5344 96.12892 62.72846 98.27922 62.91553 100.4296 63.10264 102.3799 63.28311 104.1002 63.5076 103.9282 62.68449 103.7696 61.86377 103.6406 61.04065 103.5115 60.21753 103.4364 59.39682 103.4364 58.57371 103.4365 57.7506 103.5116 56.92988 103.6406 56.10676 103.7696 55.28366 103.9281 54.46293 104.1002 53.63982 101.4338 53.71465 98.92458 53.76235 96.64527 53.83717 94.366 53.91202 92.05825 53.99712 89.64992 54.03453 87.24159 54.07194 84.56581 54.09579 81.68441 54.13321 78.80299 54.17063 75.3616 54.18255 71.31903 54.18255 67.27647 54.18254 63.83506 54.17062 60.95366 54.13321 58.07223 54.0958 55.38843 54.07194 52.93709 54.03453 50.48572 53.99709 48.05176 53.912 45.68644 53.83717 43.3211 53.76234 40.69639 53.71465 37.77199 53.63982Z"/>
</g>
</g>
</g>
</g>
<path transform="matrix(1,0,0,-1,0,170.1)" d="M63.38674 88.2367C62.83353 88.2367 62.03323 88.20922 61.3325 88.1931V67.7467C61.33252 62.2589 61.24874 57.36318 61.07572 53.09854 60.90268 48.83396 60.65142 44.64231 60.30538 40.54297 61.77608 40.67517 63.35131 40.76095 65.08149 40.76095 66.81165 40.76095 68.77335 40.76095 70.93608 40.76095 73.09881 40.76095 75.06048 40.76095 76.79066 40.76095 78.52082 40.76097 80.09612 40.6752 81.56677 40.54297 81.22075 44.64232 80.96945 48.8339 80.79643 53.09854 80.62337 57.36315 80.53965 62.25887 80.53965 67.7467V88.1931C79.7085 88.2144 78.81334 88.2367 78.17727 88.2367 78.11273 87.99003 78.05548 87.63443 78.02321 87.1904 77.99093 86.7464 78.02324 86.21295 78.02321 85.62095V81.69734 63.21275C78.02321 59.11804 78.04812 55.49584 78.17727 52.31381 78.30637 49.13179 78.53538 45.99944 78.79355 42.94073 77.69623 43.0394 76.48955 43.07152 75.19863 43.07152 73.90767 43.07152 72.44712 43.07152 70.83336 43.07152 69.21966 43.07152 67.75909 43.07152 66.4681 43.07152 65.17714 43.07152 63.97051 43.03945 62.87318 42.94073 63.13138 45.99943 63.36037 49.13179 63.48946 52.31381 63.61855 55.49584 63.64346 59.11804 63.64352 63.21275V81.69734C63.64352 83.12802 63.67589 84.4369 63.64352 85.62095 63.61125 86.80497 63.51576 87.69402 63.38674 88.2367Z" fill="#f2f3f4"/>
</g>
<g clip-path="url(#clip_10)">
<g>
<g clip-path="url(#clip_11)">
<g clip-path="url(#clip_12)">
<g clip-path="url(#clip_13)">
<path stroke-width="1.832751" stroke-linecap="butt" stroke-miterlimit="10" stroke-linejoin="miter" fill="none" stroke="#f2f3f4" d="M63.38674 81.8633C62.83353 81.8633 62.03323 81.89078 61.3325 81.9069V102.3533C61.33252 107.8411 61.24874 112.7368 61.07572 117.0015 60.90268 121.266 60.65142 125.4577 60.30538 129.557 61.77608 129.4248 63.35131 129.3391 65.08149 129.3391 66.81165 129.3391 68.77335 129.3391 70.93608 129.3391 73.09881 129.3391 75.06048 129.3391 76.79066 129.3391 78.52082 129.339 80.09612 129.4248 81.56677 129.557 81.22075 125.4577 80.96945 121.2661 80.79643 117.0015 80.62337 112.7369 80.53965 107.8411 80.53965 102.3533V81.9069C79.7085 81.8856 78.81334 81.8633 78.17727 81.8633 78.11273 82.10997 78.05548 82.46557 78.02321 82.9096 77.99093 83.3536 78.02324 83.88705 78.02321 84.47905V88.40266 106.8873C78.02321 110.982 78.04812 114.6042 78.17727 117.7862 78.30637 120.9682 78.53538 124.1006 78.79355 127.1593 77.69623 127.0606 76.48955 127.0285 75.19863 127.0285 73.90767 127.0285 72.44712 127.0285 70.83336 127.0285 69.21966 127.0285 67.75909 127.0285 66.4681 127.0285 65.17714 127.0285 63.97051 127.0606 62.87318 127.1593 63.13138 124.1006 63.36037 120.9682 63.48946 117.7862 63.61855 114.6042 63.64346 110.982 63.64352 106.8873V88.40266C63.64352 86.97198 63.67589 85.6631 63.64352 84.47905 63.61125 83.29503 63.51576 82.40598 63.38674 81.8633Z"/>
</g>
</g>
</g>
</g>
</g>
<g clip-path="url(#clip_14)">
<g>
<g clip-path="url(#clip_15)">
<g clip-path="url(#clip_16)">
<g clip-path="url(#clip_17)">
<path stroke-width="4.950591" stroke-linecap="butt" stroke-miterlimit="10" stroke-linejoin="miter" fill="none" stroke="#f2f3f4" d="M21.61599 85.05C21.61599 57.70215 43.67 35.53233 70.875 35.53233 98.08 35.53233 120.134 57.70215 120.134 85.05 120.134 112.3979 98.08 134.5677 70.875 134.5677 43.67 134.5677 21.61599 112.3979 21.61599 85.05Z"/>
</g>
</g>
</g>
</g>
</g>
</g>
</g>
</g>
</svg>
